<?xml version="1.0" encoding="UTF-8" standalone="no"?>
<!-- Created with Inkscape (http://www.inkscape.org/) -->

<svg
   xmlns:dc="http://purl.org/dc/elements/1.1/"
   xmlns:cc="http://creativecommons.org/ns#"
   xmlns:rdf="http://www.w3.org/1999/02/22-rdf-syntax-ns#"
   xmlns:svg="http://www.w3.org/2000/svg"
   xmlns="http://www.w3.org/2000/svg"
   xmlns:sodipodi="http://sodipodi.sourceforge.net/DTD/sodipodi-0.dtd"
   xmlns:inkscape="http://www.inkscape.org/namespaces/inkscape"
   width="73.971619mm"
   height="17.197956mm"
   viewBox="0 0 73.971619 17.197956"
   version="1.1"
   id="svg4385"
   sodipodi:docname="yaghan-hostel.svg"
   inkscape:version="0.92.4 (5da689c313, 2019-01-14)">
  <defs
     id="defs4379" />
  <sodipodi:namedview
     id="base"
     pagecolor="#ffffff"
     bordercolor="#666666"
     borderopacity="1.0"
     inkscape:pageopacity="0.0"
     inkscape:pageshadow="2"
     inkscape:zoom="2.8"
     inkscape:cx="128.27311"
     inkscape:cy="-34.843762"
     inkscape:document-units="mm"
     inkscape:current-layer="layer1"
     showgrid="false"
     inkscape:window-width="1366"
     inkscape:window-height="744"
     inkscape:window-x="0"
     inkscape:window-y="24"
     inkscape:window-maximized="1" />
  <metadata
     id="metadata4382">
    <rdf:RDF>
      <cc:Work
         rdf:about="">
        <dc:format>image/svg+xml</dc:format>
        <dc:type
           rdf:resource="http://purl.org/dc/dcmitype/StillImage" />
        <dc:title></dc:title>
      </cc:Work>
    </rdf:RDF>
  </metadata>
  <g
     inkscape:label="Capa 1"
     inkscape:groupmode="layer"
     id="layer1"
     transform="translate(-66.775622,-75.511476)">
    <path
       d="m 81.690803,89.463465 c 0,0.01409 -0.03445,0.02525 -0.102212,0.03301 l 0.02439,0.03297 v 0.0087 l -0.0087,0.04909 0.01616,0.0329 c -0.01104,0.05188 -0.02183,0.185075 -0.03221,0.398166 0.0051,0.06861 0.0079,0.107277 0.0079,0.11485 -0.0052,0.01169 -0.0079,0.02115 -0.0079,0.02882 0.0051,0 0.0079,0.0027 0.0079,0.0087 -0.0027,0.01156 -0.0079,0.06297 -0.01611,0.156269 0.0058,0.01169 0.0087,0.02304 0.0087,0.0371 l -0.0087,0.01609 0.0087,0.01618 c -0.0058,0.0087 -0.0087,0.01967 -0.0087,0.03301 v 0.111499 l 0.0087,0.01615 h -0.0087 c 0,0.01887 0.0031,0.03297 0.0087,0.04147 0,0.0051 -0.0031,0.01333 -0.0087,0.02439 0,0.02184 0.0031,0.04777 0.0087,0.07786 -0.0058,0.05188 -0.0087,0.104472 -0.0087,0.156322 v 0.02035 h -0.04909 c -0.150704,0 -0.255129,-0.0073 -0.312646,-0.02035 0,0.0079 -0.0027,0.01234 -0.0079,0.01234 -0.01169,-0.0079 -0.02245,-0.01234 -0.03299,-0.01234 h -0.16885 l -0.01608,-0.0087 0.0087,-0.0989 v -0.143739 c 0,-0.04337 -0.0057,-0.254498 -0.0167,-0.632246 v -0.03301 c 0,-0.01169 0.0031,-0.0218 0.0088,-0.03301 -0.0058,-0.0087 -0.0088,-0.01887 -0.0088,-0.03286 v -0.270652 c -0.0058,-0.07148 -0.01609,-0.107213 -0.03297,-0.107213 l -0.02881,0.01674 c -0.0079,0 -0.0133,-0.0058 -0.01613,-0.01674 -0.0058,0 -0.0087,0.0027 -0.0087,0.0087 -0.02183,-0.01169 -0.06924,-0.02183 -0.143698,-0.03299 -0.02446,0.03858 -0.04071,0.05746 -0.04892,0.05746 0.02173,0.02183 0.0329,0.05893 0.0329,0.110746 v 0.066 l 0.0081,0.01672 c -0.0052,0 -0.0081,0.0025 -0.0081,0.0081 v 0.0414 l 0.0081,0.01613 c -0.0052,0 -0.0081,0.0027 -0.0081,0.0087 v 0.246695 l 0.0081,0.0162 c -0.0052,0 -0.0081,0.0027 -0.0081,0.0087 v 0.102316 c 0,0.0196 -0.0031,0.04406 -0.0087,0.07436 l 0.0087,0.01612 c -0.0058,0.03858 -0.0087,0.07 -0.0087,0.09455 v 0.250269 c 0,0.126241 -0.01402,0.479388 -0.0414,1.059821 l 0.0087,0.01616 c -0.0058,0.01156 -0.0087,0.02238 -0.0087,0.03286 v 0.287478 c 0,0.01956 -0.0027,0.04406 -0.0081,0.07434 0.0051,0.0087 0.0081,0.02882 0.0081,0.06162 v 0.267125 l -0.01612,0.02439 v 0.05336 l 0.0087,0.01613 c -0.0058,0 -0.0087,0.0027 -0.0087,0.0087 v 0.0245 c 0.01891,0.09035 0.0414,0.135966 0.06589,0.135966 h 0.01613 c 0.03573,0 0.07786,-0.0027 0.127541,-0.0087 0.05192,0 0.07784,-0.0371 0.07784,-0.11072 -0.0058,-0.03577 -0.0087,-0.07303 -0.0087,-0.110849 v -0.09035 l 0.0087,-0.08635 c -0.0058,0 -0.0087,-0.0027 -0.0087,-0.0087 l 0.0087,-0.01674 c -0.0058,-0.09263 -0.0087,-0.165412 -0.0087,-0.217322 v -0.02455 l 0.0087,-0.05739 c -0.0058,0 -0.0087,-0.0027 -0.0087,-0.0087 0.0058,-0.01169 0.0087,-0.02306 0.0087,-0.03711 v -0.0081 l -0.0087,-0.01677 c 0.0058,0 0.0087,-0.0027 0.0087,-0.0087 v -0.184571 l 0.0087,-0.0414 c -0.0058,0 -0.0087,-0.0027 -0.0087,-0.0087 0.0058,-0.03008 0.0087,-0.05602 0.0087,-0.07786 v -0.258596 l 0.0087,-0.08625 c -0.0058,0 -0.0087,-0.0027 -0.0087,-0.0087 0.0058,-0.0087 0.0087,-0.01891 0.0087,-0.03299 v -0.0652 c 0,-0.01169 0.0051,-0.01671 0.01612,-0.01671 h 0.0414 l 0.04071,0.0087 c 0,-0.0057 0.0031,-0.0087 0.0087,-0.0087 0.01333,0 0.11485,0.01156 0.303473,0.0329 h 0.176655 l 0.01681,0.0087 -0.0087,0.01612 v 0.06596 l 0.0087,0.02035 h -0.0087 l 0.0087,0.0414 -0.0087,0.01616 0.0087,0.01676 c -0.0058,0.103693 -0.01169,0.339256 -0.01681,0.705865 -0.0051,0.01156 -0.0079,0.01956 -0.0079,0.02518 0.0058,0 0.0079,0.0027 0.0079,0.0079 -0.0051,0 -0.0079,0.0027 -0.0079,0.0087 v 0.07786 l 0.0079,0.01667 c -0.0051,0 -0.0079,0.0027 -0.0079,0.0087 v 0.05749 l 0.0079,0.01612 h -0.0079 l 0.0079,0.0414 -0.0079,0.06174 c 0.0058,0 0.0079,0.0021 0.0079,0.0081 h -0.0079 l 0.0079,0.05746 -0.0079,0.0414 c 0.0058,0 0.0079,0.0027 0.0079,0.0087 0,0.01615 -0.0051,0.03927 -0.01611,0.06935 0.01169,0.101563 0.0245,0.152089 0.0415,0.152089 l -0.02529,0.03301 0.0088,0.01607 c 0.03004,0 0.07558,-0.0052 0.135973,-0.01607 0,0.0058 0.0021,0.0087 0.0081,0.0087 0.03858,0 0.05746,-0.01169 0.05746,-0.03299 0.0196,-0.01169 0.0329,-0.03153 0.0414,-0.06173 0,-0.04898 0.0044,-0.140858 0.01234,-0.275437 -0.0079,-0.05739 -0.01234,-0.09183 -0.01234,-0.102238 0.0088,-0.01169 0.01234,-0.01967 0.01234,-0.02446 0,-0.0058 -0.0036,-0.01412 -0.01234,-0.02529 0.0088,-0.09248 0.01234,-0.165409 0.01234,-0.217195 v -0.415389 l -0.01234,-0.01614 h 0.01234 c 0,-0.01156 -0.0036,-0.02243 -0.01234,-0.0329 l 0.01234,-0.0415 c -0.0079,-0.01091 -0.01234,-0.01891 -0.01234,-0.0245 l 0.01234,-0.01609 -0.01234,-0.01676 0.01234,-0.02039 c 0,-0.0057 -0.0036,-0.01398 -0.01234,-0.02435 0.0088,0 0.01234,-0.0027 0.01234,-0.0088 v -0.04901 l -0.01234,-0.01677 c 0.0088,0 0.01234,-0.0027 0.01234,-0.0081 l -0.01234,-0.01677 c 0.01333,0 0.02039,-0.07 0.02039,-0.209518 v -0.14358 l 0.0087,-0.04485 c -0.0058,0 -0.0087,-0.0027 -0.0087,-0.0087 l 0.0087,-0.01616 c 0,-0.0058 -0.0031,-0.01409 -0.0087,-0.02515 0.0058,0 0.0087,-0.0025 0.0087,-0.0081 v -0.23413 l 0.0087,-0.103004 c -0.0058,0 -0.0087,-0.0027 -0.0087,-0.0081 0.0058,-0.04698 0.0087,-0.08556 0.0087,-0.115539 v -0.188541 l 0.0079,-0.0415 c -0.0051,0 -0.0079,-0.0027 -0.0079,-0.0079 l 0.0079,-0.04964 V 89.6197 c 0,-0.07079 0.0087,-0.106615 0.0245,-0.106615 h 0.0415 v -0.0087 c -0.0087,-0.02183 -0.02742,-0.03299 -0.05749,-0.03299 h -0.0087 c -0.0378,0 -0.094,-0.0027 -0.168218,-0.0087 z m -0.01608,0.04975 h 0.03297 v 0.0079 h -0.03297 z m 9.020924,-0.131796 c -0.172423,0 -0.311894,0.06861 -0.41839,0.205425 -0.033,0.09327 -0.06873,0.225615 -0.107212,0.398828 l 0.01668,0.04071 c -0.0058,0 -0.0087,0.0027 -0.0087,0.0087 v 0.164122 c 0,0.02728 -0.0031,0.07431 -0.0087,0.139441 0.0058,0 0.0087,0.0027 0.0087,0.0087 -0.0058,0.0087 -0.0087,0.01967 -0.0087,0.03297 v 0.139476 c 0,0.175257 -0.0052,0.334393 -0.01615,0.476676 0.0057,0.145091 0.0087,0.288757 0.0087,0.431043 l -0.0087,0.04903 c 0.0057,0 0.0087,0.0027 0.0087,0.0087 -0.0057,0.03858 -0.0087,0.06861 -0.0087,0.09039 v 0.05746 c 0,0.02742 0.0031,0.05192 0.0087,0.07435 -0.0057,0.02742 -0.0087,0.05476 -0.0087,0.08196 v 0.238297 c 0,0.0876 0.0057,0.145059 0.01615,0.172422 h -0.0081 c 0.02742,0.147899 0.07638,0.261432 0.147903,0.340672 0.0793,0.07638 0.180212,0.126229 0.303564,0.147893 l 0.01664,-0.0088 c 0,0.0088 0.01104,0.01682 0.03301,0.0245 0.133856,-0.01091 0.201201,-0.01887 0.201201,-0.0245 0.109265,0 0.221421,-0.06295 0.336439,-0.188535 0.08187,-0.07999 0.123358,-0.368659 0.123358,-0.867041 l 0.0087,-0.03221 c -0.0058,0 -0.0087,-0.0027 -0.0087,-0.0087 l 0.0087,-0.01678 -0.0087,-0.01618 c 0,-0.13947 -0.0058,-0.251592 -0.01677,-0.337097 l 0.01677,-0.225724 c -0.0058,-0.0081 -0.0087,-0.01891 -0.0087,-0.0329 l 0.0087,-0.04907 -0.0087,-0.03297 c 0.0058,0 0.0087,-0.0031 0.0087,-0.0088 l -0.0087,-0.01613 0.0087,-0.01612 c 0,-0.0058 -0.0027,-0.01409 -0.0087,-0.02515 h 0.0087 c 0.01169,-0.284666 0.01609,-0.481533 0.01609,-0.590938 l -0.0081,-0.0414 c 0.0051,0 0.0081,-0.0027 0.0081,-0.0087 0,-0.290177 -0.04341,-0.471681 -0.131046,-0.546061 -0.07717,-0.159036 -0.199777,-0.238306 -0.370143,-0.238306 l -0.05739,0.0088 c -0.0081,0 -0.03634,-0.0027 -0.08635,-0.0088 z m -0.270492,0.883168 c 0,-0.265635 0.01091,-0.398168 0.0329,-0.398168 0.05188,-0.175156 0.159862,-0.262821 0.323879,-0.262821 0.02807,0 0.06863,0.01333 0.123358,0.04071 0.05471,0.06307 0.09332,0.153512 0.114851,0.271278 l -0.0079,0.05746 c 0.0051,0 0.0079,0.0044 0.0079,0.01302 -0.0058,0.0079 -0.0079,0.01887 -0.0079,0.03221 v 0.0087 c 0,0.01668 0.0021,0.0245 0.0079,0.0245 0.02742,0.02998 0.0415,0.08755 0.0415,0.17232 -0.0058,0 -0.0087,0.0031 -0.0087,0.0088 l 0.0087,0.01676 c -0.0058,0.0079 -0.0087,0.01887 -0.0087,0.03221 v 0.230605 l 0.0087,0.09817 c -0.0058,0 -0.0087,0.01156 -0.0087,0.0329 0,0.0058 0.0031,0.01412 0.0087,0.0245 -0.0058,0.01169 -0.0087,0.02183 -0.0087,0.03301 v 0.01676 l 0.0087,0.01615 h -0.0087 c 0,0.147899 0.0031,0.271251 0.0087,0.369418 -0.0058,0.09886 -0.0087,0.215143 -0.0087,0.348969 0,0.0058 0.0031,0.01412 0.0087,0.0245 h -0.0087 c 0,0.06308 -0.0027,0.120527 -0.0087,0.173181 l 0.01676,0.336441 c -0.0058,0.02732 -0.0087,0.06589 -0.0087,0.114889 0,0.172417 -0.07638,0.288762 -0.229947,0.348963 h -0.0245 c -0.0218,0 -0.04774,-0.0027 -0.07771,-0.0087 l -0.0168,0.0087 c -0.07638,-0.01091 -0.133825,-0.03575 -0.172415,-0.07361 -0.08188,-0.05475 -0.123358,-0.182262 -0.123358,-0.382042 0,-0.06031 0.0031,-0.109265 0.0087,-0.147898 -0.0058,-0.05471 -0.0087,-0.123358 -0.0087,-0.205327 v -0.0415 c 0.01169,-0.133831 0.0168,-0.208103 0.0168,-0.221525 z M 91.225611,89.7102 h 0.0087 c 0,0.0027 0.0087,0.0329 0.0245,0.09035 v 0.0245 h -0.0087 l -0.02446,-0.09035 z m 0.0329,0.188541 h 0.0087 v 0.02519 h -0.0087 z m 8.877359,-0.52152 c -0.251686,0 -0.428332,0.128957 -0.529214,0.386176 -0.01169,0.117876 -0.02525,0.201193 -0.0415,0.250928 l 0.0087,0.01627 h -0.0087 c 0,0.0057 0.0027,0.01399 0.0087,0.02435 -0.0058,0.06041 -0.01169,0.09752 -0.01676,0.11085 0,0.08478 0.07303,0.276867 0.21805,0.575474 0.08763,0.125475 0.185736,0.302075 0.295794,0.52984 0,0.02183 0.0603,0.135282 0.18012,0.340678 0.10722,0.224324 0.16052,0.386167 0.16052,0.484335 -0.006,0 -0.009,0.0027 -0.009,0.0087 l 0.0167,0.08625 -0.0659,0.160561 c 0,0.03221 -0.0344,0.05959 -0.103,0.08186 -0.15005,0.0081 -0.22575,0.02183 -0.22575,0.04071 -0.10086,0 -0.179454,-0.105134 -0.234071,-0.316123 v -0.254425 l -0.0087,-0.0415 c 0.0058,0 0.0087,-0.0027 0.0087,-0.0079 v -0.0087 h -0.0087 l -0.03221,0.02446 h -0.04975 l -0.04071,-0.0087 c 0,0.01169 -0.02104,0.0168 -0.06162,0.0168 h -0.05748 c 0,0.02446 0.0027,0.05602 0.0081,0.09399 l -0.03232,0.03301 v 0.0087 l 0.0081,0.01677 h -0.0081 l 0.0081,0.04902 c 0,0.0058 -0.0031,0.01333 -0.0081,0.0245 0.04902,0.238276 0.08898,0.369322 0.119214,0.393873 0.08196,0.09046 0.181635,0.152087 0.299368,0.185071 h 0.08185 l 0.0618,0.0087 c 0,-0.0058 0.009,-0.0087 0.0252,-0.0087 0.0134,0 0.0295,0.0058 0.049,0.01676 0.0548,-0.01169 0.13524,-0.03577 0.2425,-0.07436 0.20474,-0.109265 0.3078,-0.265617 0.3078,-0.468243 0,-0.04893 -0.0162,-0.129619 -0.0491,-0.2425 -0.0826,-0.194163 -0.12335,-0.297843 -0.12335,-0.311889 -0.0274,-0.13386 -0.16194,-0.3904 -0.4024,-0.768249 -0.2081,-0.435244 -0.312551,-0.695257 -0.312551,-0.780141 0.0058,-0.123358 0.03437,-0.231231 0.08625,-0.324449 0.0989,-0.07371 0.179451,-0.113577 0.242501,-0.119318 h 0.0575 c 0.0744,0 0.13038,0.01169 0.16822,0.03297 0.0659,0.04709 0.0989,0.211039 0.0989,0.492796 0,0.0087 -0.014,0.01553 -0.0414,0.02104 0,0.0218 0.0344,0.03297 0.10301,0.03297 h 0.0161 c 0.0876,0 0.1401,-0.0087 0.15632,-0.02515 0,-0.01333 -0.003,-0.02594 -0.009,-0.03636 l 0.009,-0.04975 v -0.2172 c -0.0245,-0.159166 -0.0737,-0.278285 -0.1479,-0.357526 -0.10156,-0.0686 -0.23275,-0.110746 -0.39396,-0.127541 0,0.0058 -0.003,0.0087 -0.009,0.0087 z m -0.537636,0.821553 h 0.0087 c 0,0.0057 0.0021,0.01399 0.0079,0.02435 v 0.0168 c -0.0079,0 -0.0133,-0.0058 -0.01612,-0.0168 z m 0.706516,1.02684 h 0.0161 c 0,0.01669 0.009,0.03701 0.0245,0.06171 h -0.0161 c 0,-0.0058 -0.009,-0.02594 -0.0245,-0.06171 z m 0.0322,0.07 h 0.009 c 0.0218,0.0081 0.033,0.02742 0.033,0.05749 h -0.0161 c 0,-0.0058 -0.009,-0.0245 -0.0253,-0.05749 z m 0.033,0.06521 c 0.006,0 0.0197,0.01665 0.0415,0.04964 l -0.009,0.01615 c 0.0385,0.0415 0.0574,0.07851 0.0574,0.110824 -0.0162,-0.0081 -0.0463,-0.06373 -0.0904,-0.168219 z m -0.578941,0.936469 h 0.0088 v 0.01668 h -0.0088 z m 0.0245,0.07 h 0.02519 c 0,0.0058 0.0036,0.01409 0.01234,0.0245 v 0.0087 h -0.02035 c 0,-0.0087 -0.0058,-0.01891 -0.0167,-0.03301 z m 0.04554,0.04906 h 0.01616 v 0.01671 c -0.01091,0 -0.01616,-0.0057 -0.01616,-0.01671 z m 8.914431,-2.981718 c -0.008,0 -0.0133,0.0058 -0.0161,0.01669 v 0.01234 c 0,0.01169 0.006,0.01676 0.0161,0.01676 h 0.17668 v 0.0087 c -0.0737,0 -0.12191,0.0081 -0.1437,0.0245 l 0.009,0.04071 v 0.01666 l -0.009,0.05749 c 0.006,0 0.009,0.0027 0.009,0.0079 -0.0116,0.02529 -0.0167,0.04273 -0.0167,0.05415 l 0.0167,0.0245 c 0.066,0 0.11085,-0.0058 0.13538,-0.01682 0,0.0058 0.003,0.0088 0.009,0.0088 h 0.033 l 0.0161,-0.0088 c 0,0.0058 0.003,0.0088 0.009,0.0088 h 0.0161 c 0.0197,0 0.0344,-0.0031 0.0456,-0.0088 l 0.0489,0.0088 h 0.1479 v 0.0087 l -0.009,0.049 0.009,0.01674 c 0,0.01333 -0.003,0.0245 -0.009,0.03221 0.006,0.03858 0.009,0.07014 0.009,0.09459 v 0.0905 l 0.013,0.01672 h -0.013 l 0.013,0.03232 c 0,0.01399 -0.004,0.03703 -0.013,0.07 l 0.013,0.01613 -0.013,0.04964 v 0.217319 c 0,0.04709 -0.003,0.121878 -0.009,0.226379 0.006,0 0.009,0.0027 0.009,0.0081 -0.006,0 -0.009,0.0027 -0.009,0.0087 v 0.05749 l -0.008,0.08635 c 0.006,0 0.008,0.0027 0.008,0.0087 l -0.008,0.01612 c 0,0.0058 0.003,0.01412 0.008,0.0245 -0.005,0 -0.008,0.0031 -0.008,0.0087 v 0.571281 l 0.008,0.01612 h -0.008 l 0.008,0.07438 c 0,0.0052 -0.002,0.01343 -0.008,0.0245 l 0.008,0.01613 c 0,0.0058 -0.002,0.02311 -0.008,0.05336 l 0.008,0.0168 h -0.008 l 0.008,0.05736 c 0,0.01343 -0.002,0.0245 -0.008,0.03301 0.006,0.01091 0.008,0.02183 0.008,0.03221 v 0.255162 c 0,0.03004 -0.002,0.06808 -0.008,0.114954 0.006,0.0027 0.008,0.03142 0.008,0.08625 v 0.03297 l 0.009,0.04075 c -0.006,0 -0.009,0.0087 -0.009,0.02515 v 0.06521 l 0.009,0.01678 c -0.006,0 -0.009,0.0031 -0.009,0.0081 0,0.01408 0.003,0.02663 0.009,0.03711 -0.006,0.0087 -0.009,0.01956 -0.009,0.0329 v 0.10668 l -0.008,0.103004 c 0,0.02742 0.0344,0.04071 0.10231,0.04071 h 0.009 c 0.0299,0 0.0686,-0.0021 0.11485,-0.0079 0.0117,0.0057 0.0204,0.0079 0.0288,0.0079 0.0218,-0.03779 0.0329,-0.05963 0.0329,-0.06521 l -0.0244,-0.653105 c 0.006,-0.06039 0.008,-0.139541 0.008,-0.238372 v -0.106615 l 0.009,-0.0415 c -0.006,0 -0.009,-0.0079 -0.009,-0.02446 v -0.0087 c 0,-0.02998 0.003,-0.05594 0.009,-0.07775 -0.006,-0.03008 -0.009,-0.05749 -0.009,-0.08196 v -0.0329 c 0,-0.126267 -0.002,-0.216662 -0.008,-0.271251 0.006,-0.0548 0.008,-0.1438 0.008,-0.267151 v -0.06521 c 0,-0.02439 -0.002,-0.05592 -0.008,-0.09459 l 0.0329,-0.484462 c 0,-0.03297 -0.003,-0.100302 -0.009,-0.201825 0.006,-0.0548 0.009,-0.107823 0.009,-0.159795 l -0.009,-0.0168 h 0.009 c 0,-0.0051 -0.003,-0.0133 -0.009,-0.02446 l 0.009,-0.04071 c -0.006,0 -0.009,-0.0027 -0.009,-0.0088 0.0117,-0.0057 0.075,-0.01399 0.19278,-0.02435 0.0386,0 0.10027,0.0057 0.18508,0.01609 l 0.0162,-0.0081 c 0,0.0052 0.003,0.0081 0.009,0.0081 h 0.0168 c 0.0104,-0.0027 0.022,-0.01609 0.0323,-0.04071 -0.005,-0.04975 -0.008,-0.08901 -0.008,-0.119357 v -0.0743 c 0,-0.01333 -0.14507,-0.03155 -0.43526,-0.05336 h -0.29575 l -0.0167,0.0087 v -0.0087 c -0.011,0 -0.0218,0.0027 -0.033,0.0087 -0.17731,-0.0058 -0.30347,-0.0087 -0.37784,-0.0087 l -0.0407,-0.0087 c 0,0.0058 -0.003,0.0087 -0.009,0.0087 0,-0.0057 -0.003,-0.0087 -0.009,-0.0087 z m 0.846,0.04554 h 0.0331 v 0.0087 h -0.0331 z m 8.63897,1.005855 h 0.009 v 0.0167 h -0.009 z m 0.013,2.123762 c -0.005,0.01333 -0.013,0.02035 -0.0212,0.02035 v 0.0245 c 0,0.01169 0.007,0.01676 0.0168,0.01676 h 0.0704 c 0.30909,-0.01676 0.52426,-0.02525 0.64481,-0.02525 0.0284,-0.0051 0.0426,-0.0081 0.0485,-0.0081 0,0.0058 0.0117,0.0081 0.033,0.0081 h 0.0484 l 0.0174,-0.0081 c 0,-0.01677 -0.005,-0.03858 -0.0174,-0.06585 0.006,-0.01169 0.009,-0.02309 0.009,-0.03714 v -0.04901 l -0.009,-0.0167 c 0.006,0 0.009,-0.0021 0.009,-0.0081 v -0.01674 c 0,-0.01104 -0.005,-0.0162 -0.0175,-0.0162 h -0.14731 c -0.0232,0 -0.0477,-0.0027 -0.079,-0.0087 -0.0935,0.0058 -0.16532,0.01399 -0.21724,0.0245 0,-0.0052 -0.003,-0.0081 -0.009,-0.0081 h -0.0405 l -0.10183,-0.0087 c -0.005,-0.05736 -0.009,-0.100302 -0.009,-0.127449 v -0.565989 l 0.009,-0.06171 c -0.005,0 -0.009,-0.0027 -0.009,-0.0087 0.007,-0.0087 0.009,-0.01891 0.009,-0.033 v -0.299876 c 0,-0.05749 0.004,-0.14228 0.013,-0.2544 l 0.0331,-0.0087 c 0.10157,0 0.2327,-0.0052 0.39462,-0.01616 0,0.01616 0.005,0.0245 0.0168,0.0245 h 0.009 c 0.0226,-0.0134 0.0335,-0.0245 0.0335,-0.03299 V 90.91958 l -0.009,-0.01613 h 0.009 c 0,-0.0133 -0.009,-0.03152 -0.0256,-0.05336 -0.006,0 -0.009,0.0027 -0.009,0.0088 -0.0514,0 -0.12457,-0.0031 -0.21807,-0.0088 -0.0256,0 -0.0725,0.0058 -0.1437,0.01615 -0.0346,-0.0051 -0.0755,-0.0079 -0.11872,-0.0079 v -0.03301 l 0.009,-0.0414 c -0.005,0 -0.009,-0.0027 -0.009,-0.0087 l 0.009,-0.0491 v -0.11072 l 0.009,-0.0415 c -0.006,0 -0.009,-0.0031 -0.009,-0.0081 0.006,0 0.009,-0.0027 0.009,-0.0087 v -0.03299 c 0,-0.11485 -0.003,-0.254394 -0.009,-0.419149 l 0.009,-0.04071 c -0.006,0 -0.009,-0.0027 -0.009,-0.0087 l 0.009,-0.08625 c 0,-0.0087 -0.006,-0.105238 -0.0175,-0.291569 h 0.0948 c 0.0543,0 0.23277,-0.0058 0.53417,-0.01613 0.0196,0 0.0291,0.0051 0.0291,0.01613 0.005,0 0.0197,-0.01743 0.0404,-0.05336 v -0.11485 c 0,-0.04416 -0.0117,-0.06867 -0.0327,-0.07436 l -0.0448,0.02439 v -0.0081 c -0.006,0 -0.0138,0.0027 -0.0255,0.0081 -0.15075,0 -0.37645,0.0027 -0.67793,0.0087 l -0.0168,-0.0087 c 0,0.0058 -0.003,0.0087 -0.009,0.0087 h -0.009 c -0.0104,0 -0.0168,-0.0058 -0.0168,-0.01612 l -0.0175,0.0081 c -0.0104,0 -0.0168,-0.0051 -0.0168,-0.01616 -0.0513,0 -0.0871,0.01891 -0.10144,0.05749 v 0.0087 l 0.0168,0.02446 v 0.04075 c 0,0.170268 -0.009,0.292952 -0.0255,0.37004 0.005,0 0.009,0.0027 0.009,0.0088 -0.007,0.01091 -0.009,0.0218 -0.009,0.03221 v 0.07 c 0,0.02183 -0.003,0.05188 -0.009,0.09046 0.007,0.01156 0.009,0.02184 0.009,0.0329 l -0.009,0.01624 0.009,0.01669 c 0,0.0133 -0.003,0.03634 -0.009,0.06931 l 0.009,0.0168 c -0.005,0 -0.009,0.0027 -0.009,0.0079 v 0.08264 l 0.009,0.05749 c -0.005,0 -0.009,0.01234 -0.009,0.03632 l 0.009,0.01672 c -0.005,0 -0.009,0.0027 -0.009,0.0087 v 0.208858 l -0.009,0.08264 c 0.005,0 0.009,0.0052 0.009,0.01613 0,0.0058 -0.003,0.01409 -0.009,0.02446 l 0.009,0.03301 c 0,0.147901 0.007,0.27687 0.0174,0.386175 -0.005,0 -0.009,0.0027 -0.009,0.0087 0.0104,0.03782 0.0167,0.139477 0.0167,0.303499 v 0.06596 l 0.009,0.05739 c -0.005,0 -0.009,0.0031 -0.009,0.0087 l 0.009,0.01612 h -0.009 l 0.009,0.0456 v 0.106615 l 0.009,0.01613 h -0.009 c 0,0.0058 0.003,0.01409 0.009,0.02446 l -0.009,0.0168 0.009,0.05332 v 0.106615 l -0.009,0.0168 h 0.009 c 0,0.0057 -0.003,0.0133 -0.009,0.02446 0,0.0087 0.003,0.01743 0.009,0.02876 l -0.009,0.01613 h 0.009 l -0.009,0.01679 v 0.01608 l 0.009,0.01676 c -0.005,0 -0.009,0.0027 -0.009,0.0081 v 0.03301 l 0.009,0.01668 h -0.009 c 0,0.0058 0.003,0.01339 0.009,0.0245 -0.005,0.01169 -0.009,0.0218 -0.009,0.03297 v 0.262819 c 0.006,0 0.0147,0.0031 0.0256,0.0088 z m 9.33707,-3.175147 -0.0572,0.02104 v -0.0087 c -0.0769,0 -0.12534,0.01169 -0.14789,0.03299 0,0.0058 0.003,0.0087 0.009,0.0087 l -0.009,0.102251 v 0.143782 c 0,0.08755 0.003,0.187782 0.009,0.299897 l -0.009,0.04075 c 0.005,0.03004 0.009,0.04844 0.009,0.05411 l -0.0256,0.648369 0.009,0.0414 c -0.005,0.03004 -0.009,0.06452 -0.009,0.102315 v 0.02886 l 0.009,0.0414 c -0.005,0 -0.009,0.0087 -0.009,0.0245 v 0.01676 l 0.009,0.02035 c -0.005,0 -0.009,0.0027 -0.009,0.0087 v 0.08199 l -0.009,0.04481 c 0.005,0 0.009,0.0027 0.009,0.0088 h -0.009 c 0,0.01399 0.003,0.02446 0.009,0.0329 l -0.009,0.01624 c 0.005,0.04964 0.0117,0.135908 0.0174,0.259254 l -0.009,0.04071 c 0.005,0.01169 0.009,0.02598 0.009,0.04564 l -0.009,0.04071 c 0.005,0 0.009,0.0027 0.009,0.0087 h -0.009 l 0.0169,0.164033 c -0.005,0 -0.008,0.0027 -0.008,0.0087 l 0.008,0.04888 v 0.07865 c 0,0.05736 0.003,0.125476 0.009,0.205298 -0.006,0.0081 -0.009,0.01891 -0.009,0.03221 0.005,0 0.009,0.0027 0.009,0.0087 -0.006,0 -0.009,0.0027 -0.009,0.0088 v 0.11072 c 0,0.04629 -0.003,0.101562 -0.008,0.164089 l 0.0168,0.04968 c -0.0168,0.09525 -0.0307,0.153517 -0.0396,0.172423 0.005,0 0.008,0.0027 0.008,0.0087 0.0688,0 0.16887,-0.0058 0.29983,-0.01674 0.0117,0.0058 0.0197,0.0087 0.0256,0.0087 l 0.0175,-0.0087 c 0.005,0 0.0153,0.0027 0.0296,0.0087 0.15836,-0.01169 0.33782,-0.01676 0.53762,-0.01676 h 0.0914 c 0.0147,0 0.0212,-0.0051 0.0212,-0.01614 v -0.02035 c -0.0168,0 -0.0529,-0.0058 -0.11001,-0.01676 0,0.0058 -0.004,0.0087 -0.013,0.0087 l -0.0174,-0.0087 0.0174,-0.0329 -0.009,-0.03232 0.009,-0.07851 -0.009,-0.01612 c -0.0571,0 -0.10209,0.0027 -0.13532,0.0081 l -0.30872,-0.02463 c -0.0198,0.0057 -0.0426,0.0087 -0.0739,0.0087 h -0.0791 c 0,-0.02998 0.003,-0.07361 0.009,-0.131045 0,-0.0087 -0.003,-0.0415 -0.009,-0.09886 0.005,-0.01409 0.009,-0.02307 0.009,-0.02882 l -0.009,-0.0168 0.009,-0.01615 c -0.005,-0.627286 -0.0145,-0.940596 -0.0253,-0.940596 0.005,-0.0087 0.009,-0.01887 0.009,-0.03301 v -0.02446 l -0.009,-0.06167 c 0.005,0 0.009,-0.0027 0.009,-0.0081 -0.005,-0.01169 -0.009,-0.02246 -0.009,-0.03301 v -0.05342 c 0,-0.02817 0.005,-0.173177 0.0168,-0.436004 v -0.385687 l 0.009,-0.0414 c -0.005,0 -0.009,-0.0058 -0.009,-0.01613 0,-0.0415 0.003,-0.06452 0.009,-0.0701 -0.005,-0.04629 -0.009,-0.08625 -0.009,-0.119253 V 89.61777 l -0.008,-0.102211 c 0.005,0 0.008,-0.0087 0.008,-0.0245 0,-0.02807 -0.0212,-0.0456 -0.0616,-0.05405 z"
       style="fill:#000000;fill-rule:evenodd;stroke-width:0.33042851"
       id="path4192"
       inkscape:connector-curvature="0" />
    <path
       d="m 95.416143,91.507756 c -0.02269,0 -0.05753,-0.01399 -0.105303,-0.04137 v 0.0073 l -0.03437,-0.0073 c -0.111096,-0.08614 -0.166896,-0.204104 -0.166896,-0.354124 0,-0.03655 0.01208,-0.08309 0.03441,-0.139534 0.09311,-0.09315 0.188377,-0.140132 0.286058,-0.140132 h 0.0073 c 0.07912,0 0.146512,0.03547 0.200597,0.105887 0.07971,0.05236 0.119293,0.114473 0.119293,0.187254 0,0.0048 -0.0025,0.0073 -0.0066,0.0073 0,0.05236 -0.01737,0.114474 -0.05112,0.187217 -0.104719,0.125111 -0.185506,0.187814 -0.241909,0.187814 z"
       style="fill:#000000;fill-rule:evenodd;stroke-width:0.33042851"
       id="path4194"
       inkscape:connector-curvature="0" />
    <path
       d="m 86.083786,91.507756 c -0.02268,0 -0.05753,-0.01399 -0.105303,-0.04137 v 0.0073 l -0.03441,-0.0073 c -0.111096,-0.08614 -0.166864,-0.204104 -0.166864,-0.354124 0,-0.03655 0.01208,-0.08309 0.03437,-0.139534 0.09315,-0.09315 0.188408,-0.140132 0.286087,-0.140132 h 0.0073 c 0.07913,0 0.146544,0.03547 0.200604,0.105887 0.07974,0.05236 0.119318,0.114473 0.119318,0.187254 0,0.0048 -0.0025,0.0073 -0.0066,0.0073 0,0.05236 -0.01737,0.114474 -0.05113,0.187217 -0.104718,0.125111 -0.185502,0.187814 -0.241911,0.187814 z"
       style="fill:#000000;fill-rule:evenodd;stroke-width:0.33042851"
       id="path4196"
       inkscape:connector-curvature="0" />
    <path
       d="m 104.7485,91.507756 c -0.0227,0 -0.0575,-0.01399 -0.1053,-0.04137 v 0.0073 l -0.0344,-0.0073 c -0.11109,-0.08614 -0.16686,-0.204104 -0.16686,-0.354124 0,-0.03655 0.0121,-0.08309 0.0344,-0.139534 0.0931,-0.09315 0.18837,-0.140132 0.28608,-0.140132 h 0.007 c 0.0791,0 0.14652,0.03547 0.20061,0.105887 0.0797,0.05236 0.11929,0.114473 0.11929,0.187254 0,0.0048 -0.002,0.0073 -0.007,0.0073 0,0.05236 -0.0174,0.114474 -0.0512,0.187217 -0.10468,0.125111 -0.18546,0.187814 -0.24187,0.187814 z"
       style="fill:#000000;fill-rule:evenodd;stroke-width:0.33042851"
       id="path4198"
       inkscape:connector-curvature="0" />
    <path
       d="m 114.08092,91.507756 c -0.0236,0 -0.0573,-0.01399 -0.1043,-0.04137 v 0.0073 l -0.034,-0.0073 c -0.11028,-0.08614 -0.16686,-0.204104 -0.16686,-0.354124 0,-0.03655 0.0117,-0.08309 0.0342,-0.139534 0.0937,-0.09315 0.18842,-0.140132 0.28608,-0.140132 h 0.008 c 0.0796,0 0.14653,0.03547 0.20059,0.105887 0.0803,0.05236 0.11885,0.114473 0.11885,0.187254 0,0.0048 -0.003,0.0073 -0.006,0.0073 0,0.05236 -0.0182,0.114474 -0.0507,0.187217 -0.10366,0.125111 -0.18546,0.187814 -0.24189,0.187814 z"
       style="fill:#000000;fill-rule:evenodd;stroke-width:0.33042851"
       id="path4200"
       inkscape:connector-curvature="0" />
    <path
       d="m 123.41325,91.507756 c -0.0236,0 -0.0573,-0.01399 -0.1043,-0.04137 v 0.0073 l -0.0347,-0.0073 c -0.11028,-0.08614 -0.16688,-0.204104 -0.16688,-0.354124 0,-0.03655 0.0117,-0.08309 0.0344,-0.139534 0.0937,-0.09315 0.18836,-0.140132 0.28604,-0.140132 h 0.008 c 0.0796,0 0.14649,0.03547 0.20057,0.105887 0.0803,0.05236 0.11873,0.114473 0.11873,0.187254 0,0.0048 -0.003,0.0073 -0.007,0.0073 0,0.05236 -0.0182,0.114474 -0.0507,0.187217 -0.10365,0.125111 -0.18549,0.187814 -0.24188,0.187814 z"
       style="fill:#000000;fill-rule:evenodd;stroke-width:0.33042851"
       id="path4202"
       inkscape:connector-curvature="0" />
    <path
       d="m 108.48882,83.450164 h 0.65617 v -3.340498 h 3.93699 v 3.340498 h 0.65617 v -7.038891 h -0.65617 v 3.1019 h -3.93699 v -3.1019 h -0.65617 z"
       style="fill:#ffaa00;fill-rule:evenodd;stroke-width:0.33042851"
       id="path4208"
       inkscape:connector-curvature="0" />
    <path
       d="m 100.62466,79.65235 h -0.656168 v 0.596521 1.183069 1.183102 c -0.536879,0.318133 -1.212939,0.417555 -1.968498,0.417555 -1.839262,0 -2.982579,-1.352108 -2.982579,-3.101856 0,-1.749788 1.143317,-3.1019 2.98258,-3.1019 0.765505,0 1.630467,0.357918 2.057975,0.874902 l 0.47721,-0.497125 c -0.646222,-0.656133 -1.491297,-0.974299 -2.535186,-0.974299 -2.147454,0 -3.63874,1.550962 -3.63874,3.698422 0,2.147419 1.491286,3.698385 3.63874,3.698385 0.91463,0 1.809427,-0.169017 2.624666,-0.636312 z"
       style="fill:#ffaa00;fill-rule:evenodd;stroke-width:0.33042851"
       id="path4210"
       inkscape:connector-curvature="0" />
    <path
       d="m 69.360501,83.450164 h 0.656197 v -3.03231 l 2.584876,-4.006581 h -0.735702 l -2.177254,3.340507 -2.127572,-3.340507 h -0.785424 l 2.584879,4.006581 z"
       style="fill:#ffaa00;fill-rule:evenodd;stroke-width:0.33042851"
       id="path4212"
       inkscape:connector-curvature="0" />
    <path
       d="m 124.6179,77.413401 -2.97177,6.936521 h -0.8149 l 3.78667,-8.838446 3.7868,8.838446 h -0.81487 z"
       style="fill:#ffaa00;fill-rule:evenodd;stroke-width:0.33042851"
       id="path4214"
       inkscape:connector-curvature="0" />
    <path
       d="m 83.481361,77.925926 -2.366696,5.524204 h -0.648956 l 3.015652,-7.038857 3.01576,7.038857 h -0.648964 z"
       style="fill:#ffaa00;fill-rule:evenodd;stroke-width:0.33042851"
       id="path4216"
       inkscape:connector-curvature="0" />
    <path
       d="m 136.15401,78.157064 v 5.293066 h -0.65617 v -7.038857 l 4.5932,5.213272 v -5.213272 h 0.6562 v 7.038857 z"
       style="fill:#ffaa00;fill-rule:evenodd;stroke-width:0.33042851"
       id="path4218"
       inkscape:connector-curvature="0" />
    <path
       d="m 123.99072,82.989741 c 0.0537,0.07747 0.12197,0.151108 0.20457,0.220795 0.083,0.06958 0.16549,0.129761 0.24961,0.180215 0.0849,0.05044 0.18025,0.100393 0.28841,0.149618 l -0.001,-0.0017 0.008,0.0017 c -0.0812,-0.153816 -0.1204,-0.288364 -0.1204,-0.403714 0,-0.06139 0.0153,-0.119384 0.0434,-0.173938 0.0307,-0.05476 0.0679,-0.103692 0.11469,-0.146876 0.0468,-0.04316 0.0994,-0.0866 0.15776,-0.129762 0.0573,-0.0432 0.11469,-0.08981 0.17301,-0.139705 0.0574,-0.04979 0.1095,-0.102692 0.1577,-0.158605 0.0468,-0.05579 0.0868,-0.123501 0.11483,-0.202788 0.0307,-0.07936 0.0433,-0.165804 0.0433,-0.259517 0,-0.117811 -0.0173,-0.228319 -0.049,-0.331649 -0.0335,-0.103303 -0.0772,-0.193763 -0.13071,-0.271245 -0.0536,-0.07748 -0.12197,-0.151112 -0.20459,-0.220762 -0.083,-0.06966 -0.16547,-0.129801 -0.24959,-0.180249 -0.0849,-0.0504 -0.18022,-0.100381 -0.28839,-0.149582 l 0.001,0.0017 -0.005,-0.0017 c 0.0799,0.156191 0.11846,0.290779 0.11846,0.403713 0,0.06136 -0.0153,0.119357 -0.0434,0.173903 -0.0308,0.05478 -0.0679,0.103614 -0.11469,0.146911 -0.0468,0.04316 -0.0996,0.0866 -0.1577,0.129762 -0.0574,0.04316 -0.11483,0.08977 -0.17306,0.139669 -0.0574,0.04979 -0.10949,0.102719 -0.15768,0.158604 -0.0468,0.05579 -0.0868,0.123488 -0.11483,0.20279 -0.0306,0.07936 -0.0433,0.165808 -0.0433,0.259522 0,0.117811 0.0171,0.228319 0.049,0.33164 0.0331,0.103303 0.0771,0.193801 0.13071,0.271251 z"
       style="fill:#ffaa00;fill-rule:evenodd;stroke-width:0.33042851"
       id="path4220"
       inkscape:connector-curvature="0" />
  </g>
</svg>
