<?xml version="1.0" encoding="UTF-8" standalone="no"?>
<!-- Created with Inkscape (http://www.inkscape.org/) -->

<svg
   width="125.6385mm"
   height="125.6485mm"
   viewBox="0 0 125.6385 125.6485"
   version="1.1"
   id="svg440"
   inkscape:export-filename="e-bike.svg"
   inkscape:export-xdpi="96.021843"
   inkscape:export-ydpi="96.021843"
   xmlns:inkscape="http://www.inkscape.org/namespaces/inkscape"
   xmlns:sodipodi="http://sodipodi.sourceforge.net/DTD/sodipodi-0.dtd"
   xmlns="http://www.w3.org/2000/svg"
   xmlns:svg="http://www.w3.org/2000/svg">
  <sodipodi:namedview
     id="namedview442"
     pagecolor="#ffffff"
     bordercolor="#000000"
     borderopacity="0.25"
     inkscape:showpageshadow="2"
     inkscape:pageopacity="0.0"
     inkscape:pagecheckerboard="0"
     inkscape:deskcolor="#d1d1d1"
     inkscape:document-units="mm"
     showgrid="false" />
  <defs
     id="defs437">
    <clipPath
       id="id3">
     <path
   d="M 13877,13515 H 26441 V 26080 H 13877 Z"
   id="path36" />

    </clipPath>
  </defs>
  <g
     inkscape:label="Layer 1"
     inkscape:groupmode="layer"
     id="layer1"
     transform="translate(-42.460782,-81.719785)">
    <g
       style="clip-rule:evenodd;fill-rule:evenodd;image-rendering:optimizeQuality;shape-rendering:geometricPrecision;text-rendering:geometricPrecision"
       clip-path="url(#id3)"
       id="g77"
       transform="matrix(0.00999988,0,0,0.00999988,-96.307549,-53.428593)">
    <g
   id="g75">
     <path
   class="fil0"
   d="m 2508,24164 c 0,0 123,110 80,123 -43,14 -80,-123 -80,-123 z m 25872,-3186 v 5102 H -2663 v -1581 l 2366,294 c -122,-22 -264,-70 -396,-168 0,0 -92,-48 -111,-121 -19,-74 -145,-132 -172,-130 l -34,12 -102,-53 21,-36 -32,-25 -32,27 -71,-84 4,-41 -48,4 -87,-116 c 0,0 -63,-74 91,-150 0,0 80,-162 295,-290 0,0 39,-71 69,-131 29,-60 73,-63 124,-19 51,43 8,60 114,-19 44,-33 145,-133 259,-253 80,106 204,206 204,206 0,0 -99,-127 -164,-248 154,-164 323,-352 405,-451 148,-179 469,-387 679,-403 151,-16 264,-16 264,-16 0,0 -109,-22 -254,-27 3,-168 16,-805 -10,-992 -24,-173 -128,-601 -168,-761 l -84,-44 -8,2 c 1,-2 1,-4 2,-6 l -274,-145 c 29,154 116,383 116,383 l -43,14 134,442 -95,38 c -66,-148 -184,-677 -242,-946 l -116,-61 c 2,204 2,524 -10,632 -19,165 -28,635 -28,635 l -62,-6 26,-709 21,-580 -2551,-1343 v -157 l 2557,1345 2,-70 -143,-208 c 51,-275 246,-509 246,-509 0,0 -220,186 -300,433 -182,-267 -133,-444 -120,-791 13,-368 186,-466 186,-466 l 73,22 c 0,0 37,-108 -4,-190 -40,-82 -179,-177 -22,-532 132,-297 436,-336 612,-315 -99,42 -379,176 -426,412 90,-269 511,-373 511,-373 l 92,-7 c 0,0 178,-170 267,-152 l 45,102 49,-31 111,29 -12,25 c 0,0 203,0 295,32 125,97 280,243 280,243 0,0 -119,-144 -226,-247 20,-19 47,-55 54,-106 0,0 -24,-273 72,-314 l -79,-52 c 0,0 115,-325 392,-397 267,-68 647,75 617,449 l -463,-42 459,86 c 15,4 249,68 260,127 0,0 70,120 -82,179 0,0 -39,30 -284,-61 0,0 -21,43 9,119 29,76 -16,110 -66,69 0,0 -25,39 -23,56 1,17 -4,38 -25,33 0,0 14,50 -30,63 -43,13 -43,54 -42,75 2,20 -31,117 -238,26 -106,-142 -196,-354 -196,-354 0,0 64,226 158,370 -42,35 -121,106 -107,153 18,63 160,239 169,303 8,64 13,95 13,95 l 34,-3 c 0,0 31,137 43,208 12,70 48,241 89,286 l -48,41 c -31,35 -110,111 -221,86 -144,-31 -416,-96 -416,-96 0,0 276,121 420,152 144,32 237,-103 237,-103 0,0 120,-73 156,-52 l 31,-125 c 0,0 109,-8 128,31 l -40,146 c 0,0 121,110 102,142 -18,32 -58,39 -76,26 0,0 67,118 -22,111 0,0 42,116 -41,88 0,0 42,116 -97,75 l -32,77 -21,-9 -142,419 -403,1152 7,4 428,-1092 c 5,12 8,24 9,35 3,41 99,98 103,149 4,51 -17,372 13,547 30,174 64,311 64,311 l -3,122 731,-223 42,132 -746,228 c 28,120 68,305 81,427 21,191 149,573 112,623 -191,-38 -426,-28 -426,-28 0,0 237,24 427,73 6,98 14,338 -20,458 -43,153 0,367 -30,464 -30,98 -88,656 -65,821 0,0 7,8 16,20 -92,6 -243,34 -328,145 97,-84 258,-90 362,-83 30,17 165,96 185,197 22,114 -41,51 -41,51 0,0 128,164 277,204 149,40 388,-46 408,85 0,0 5,4 11,11 l 10480,-1394 1768,1237 2247,-609 c -630,-15 -1222,-396 -1476,-1018 -341,-836 60,-1792 897,-2133 262,-107 535,-141 798,-112 -101,-368 -97,-729 -65,-1006 -127,-126 -231,-278 -218,-428 25,-266 308,-449 453,-527 -26,-66 18,-50 18,-50 l -17,-17 c 0,0 28,-131 58,-191 30,-60 160,-75 236,-89 77,-15 131,-57 131,-57 l 81,-19 c 0,0 18,-90 57,-102 39,-13 100,3 100,3 l 336,-263 c -34,-147 -159,-187 -197,-236 l -4015,2943 -5278,-1654 13,-141 v -1 l 5239,1643 4018,-2945 -22,-25 -94,-23 c 0,0 -11,107 -76,116 -64,9 -47,-124 -47,-124 0,0 -119,100 -157,108 -37,9 -48,-18 -70,-46 -22,-29 -37,-26 -58,-34 -21,-9 -7,-59 -7,-59 -77,4 -77,-47 -99,-68 -23,-22 -84,37 -99,16 -16,-21 -29,-128 -29,-128 0,0 -61,-57 -71,-83 -11,-27 32,-38 32,-38 l -15,-79 c 0,0 -289,60 -330,-39 -24,-59 210,-546 482,-657 272,-111 586,-76 645,-59 58,18 61,108 61,108 l 95,84 c 56,162 -62,349 -62,349 l 108,38 c 0,0 82,-190 147,-298 65,-109 331,-217 551,-297 220,-79 445,-4 674,-19 58,-4 113,-7 166,-7 l 1027,-753 1636,743 19,161 -1638,-744 -829,608 c 83,13 168,37 261,77 232,100 233,260 285,498 53,238 -93,573 -93,573 0,0 374,339 461,504 88,166 -63,381 -63,381 0,0 43,3 87,36 44,33 -24,75 -60,113 -35,38 -319,219 -319,219 l -110,109 6,26 c 0,0 145,-8 145,43 1,51 -116,78 -116,78 l -5,63 -162,66 -28,-29 -104,672 c 0,0 90,-17 96,-4 5,13 -8,70 -8,70 l -83,24 c 108,28 281,89 371,202 151,-167 341,-304 564,-395 795,-324 1701,57 2026,851 309,758 -24,1618 -745,1977 z m -4602,414 -610,-167 -103,-72 -11,16 60,41 -90,-24 -19,-20 c 52,-82 71,-183 49,-281 l 798,43 c 1,57 -1,114 -6,169 l -812,29 v 19 l 809,-28 c -11,94 -33,187 -65,275 z m -90,197 -474,-332 558,153 c -23,62 -51,122 -84,179 z m -1099,639 -11,-201 194,18 c 26,25 59,41 86,12 46,-50 125,-56 86,-127 -39,-71 -170,-228 -139,-302 9,-20 22,-59 37,-105 l 400,525 c -55,33 -113,62 -174,87 -157,64 -319,94 -479,93 z m -743,-245 24,-22 503,47 -25,196 c -181,-36 -353,-111 -502,-221 z m -1,-24 -14,13 c -7,-6 -14,-11 -21,-16 z m -853,-118 c 48,-64 77,-141 82,-222 53,-18 88,-31 88,-31 0,0 5,8 15,19 42,95 94,184 152,266 z m -605,-134 c -30,-75 -28,-155 0,-225 126,119 211,198 225,213 42,40 209,2 348,-40 -20,95 -84,178 -181,217 -153,63 -329,-11 -392,-165 z m -562,-680 c -7,51 24,175 24,175 0,0 -50,129 -179,181 -96,40 -294,94 -388,119 -202,-416 -560,-711 -974,-843 l 123,-662 52,14 20,-177 169,39 c 0,0 646,606 1193,1120 -17,0 -36,6 -40,34 z m -900,1850 -647,-304 -129,-137 c 3,-5 7,-10 10,-15 l 878,212 c -29,84 -67,166 -112,244 z m -801,597 -262,-779 v -79 h -9 l -9,-2 -4,14 -6,-16 c 16,-1 33,-3 49,-7 l 481,783 c -21,10 -43,19 -64,28 -58,24 -117,43 -176,58 z m -1591,-1475 807,217 -173,61 -651,-7 c -4,-91 2,-182 17,-271 z m 179,-468 556,276 145,170 -811,-225 c 29,-77 66,-151 110,-221 z m 808,-576 221,653 -11,154 c -20,3 -40,8 -60,15 l -393,-740 c 14,-7 29,-13 44,-19 66,-27 132,-48 199,-63 z m 406,819 c -29,-9 -60,-14 -91,-17 l 203,-815 c 14,3 28,5 41,8 z m 387,-192 c -5,-15 -11,-29 -17,-43 l 217,-410 c 64,42 125,89 181,141 z m 49,151 c -11,-45 -25,-90 -41,-133 l 387,-317 c 61,59 116,124 165,194 z m 621,-65 -626,359 -12,-12 c 42,-71 42,-166 21,-263 l 519,-259 c 36,55 70,113 98,175 z m -703,515 c 1,-25 -4,-46 -4,-46 l 83,-89 632,-362 c 6,13 13,27 18,41 26,64 47,129 62,194 z m 117,66 -122,-32 c 1,-5 2,-9 3,-13 l 797,-265 c 16,72 26,144 29,215 z m 47,13 661,-89 c 3,88 -3,175 -18,261 z m -224,15 c 16,-13 28,-24 35,-29 5,-4 9,-9 12,-14 l 81,22 -112,15 3,19 157,-21 688,183 c -11,55 -24,109 -41,163 l -873,-211 c 23,-39 40,-82 50,-127 z m -61,241 -29,-57 c 2,-3 5,-6 7,-9 l 94,100 z m -195,63 c 46,-19 87,-45 123,-76 l 58,27 391,758 c -49,33 -101,63 -155,90 l -479,-779 c 21,-5 42,-11 62,-20 z m 152,-105 15,29 -29,-14 c 5,-5 9,-10 14,-15 z m -354,-78 21,-12 c 106,33 230,68 238,65 4,-2 27,-22 57,-48 h 1 c -37,47 -85,84 -144,108 -41,17 -84,25 -126,26 z m -53,127 41,-106 39,118 c -27,-1 -54,-5 -80,-12 z m -290,214 -259,598 c -70,-41 -136,-88 -198,-141 z m 81,-187 -60,139 -493,492 c -67,-60 -128,-127 -182,-201 z m -92,-200 c 26,61 64,114 111,155 l -6,15 -759,444 c -47,-66 -88,-137 -123,-213 z m -33,-127 c 2,18 5,37 9,55 l -162,-2 150,-54 z m -1,-21 -2,1 -835,-224 c 13,-72 32,-143 58,-211 l 822,227 c -31,64 -46,135 -43,207 z m 97,-297 2,3 c -16,19 -29,38 -41,59 l -121,-141 z m 169,-119 c -60,24 -111,61 -153,106 l -2,-2 -385,-758 c 50,-33 103,-63 160,-89 l 392,738 c -4,1 -8,3 -12,5 z m 80,122 -7,95 -154,-76 c 31,-29 68,-54 110,-71 6,-3 13,-5 19,-7 z m 2,-36 -15,-29 c 6,-2 11,-3 17,-4 z m 74,-42 -31,123 -26,-50 5,-68 c 17,-3 35,-5 52,-5 z m -6,-76 c -13,0 -27,1 -41,3 l 7,-104 z m 19,280 -30,-56 37,-148 c 0,0 0,0 0,0 l 46,135 z m -193,448 75,-44 -56,55 c -6,-3 -13,-7 -19,-11 z m -73,42 c 12,9 24,17 37,25 l -104,104 52,-120 z m 82,-217 c 5,11 8,20 10,23 1,4 43,19 98,37 l 7,20 -142,83 c -11,-8 -22,-16 -32,-26 z m -94,-42 -27,14 h -41 c -4,-12 -6,-23 -8,-35 z m 21,-127 -103,37 c 1,-44 10,-87 27,-127 z m -30,-133 -21,-6 c 3,-5 6,-11 10,-16 z m 227,14 -18,-8 5,-72 23,42 z m 38,16 -20,-9 5,-20 z m -199,245 h -44 l 14,-8 z m 21,-14 -26,-7 19,-9 c 2,5 4,11 7,16 z m -17,-122 14,26 -1,1 -20,-24 z m -8,-17 -13,4 -86,-102 c 2,-4 4,-9 6,-13 l 42,12 z m 68,-55 -17,37 -33,11 -44,-85 102,28 z m -36,77 -6,-12 14,-4 z m -71,-208 153,76 -25,30 -127,-35 -23,-46 c 7,-8 14,-17 22,-25 z m -95,254 116,-42 31,37 -11,22 c 0,0 4,8 9,20 l -39,20 -104,-28 c -1,-10 -2,-20 -2,-29 z m 25,121 c 0,0 0,0 0,-1 l 33,-17 100,1 -57,132 c -31,-32 -58,-71 -76,-115 z m 178,186 71,-71 -33,86 c -13,-4 -25,-9 -38,-15 z m 247,-587 -25,32 -38,-116 c 26,3 51,9 75,17 z m 231,-69 88,-164 70,-58 c 16,41 29,83 38,124 z m 178,152 c -17,15 -56,49 -91,80 -5,-19 -11,-38 -19,-57 -21,-52 -52,-98 -88,-136 l 5,-10 216,-108 c 17,88 16,171 -23,231 z m -218,-132 c -2,-2 -4,-3 -6,-5 l 16,-83 80,-65 -79,147 z m 62,356 c -1,2 -1,3 -1,4 l -119,-84 32,-171 8,-15 c 22,27 42,58 56,93 12,30 19,60 23,90 -19,30 -6,67 1,83 z m 129,-617 -40,33 30,-57 c 4,8 7,16 10,24 z m -108,-225 c 25,44 59,107 89,178 l -59,111 -98,80 z m -430,177 -205,-608 c 83,-18 166,-28 249,-29 z m 63,-637 c 72,-1 143,5 213,17 l -205,817 c -1,0 -3,0 -5,0 l -50,-151 z m -570,848 -515,-255 c 41,-65 89,-126 142,-183 z m -360,-452 c 62,-64 131,-122 207,-174 l 373,734 -177,-87 z m -331,1181 c -16,-70 -25,-140 -29,-210 l 599,7 z m 65,207 c -25,-62 -46,-125 -61,-188 l 620,-222 219,3 c 3,12 7,24 12,35 l -777,402 c -5,-10 -9,-20 -13,-30 z m 566,641 278,-645 142,-141 c 21,11 44,21 67,29 l -320,835 c -58,-22 -114,-48 -167,-78 z m 398,143 c -73,-13 -145,-32 -214,-58 l 321,-836 c 43,12 87,18 133,17 l 15,46 z m 287,-736 243,724 c -81,19 -164,31 -245,34 z m -19,-56 -2,814 c -84,2 -166,-4 -247,-18 l 246,-804 z m 470,-87 602,282 c -43,70 -93,137 -149,199 z m 440,494 c -61,65 -128,123 -202,174 l -378,-734 93,44 z m -256,-1986 -211,398 c -38,-85 -79,-156 -101,-193 l 61,-327 c 88,32 172,73 251,122 z m -547,-1510 c 125,118 265,211 331,252 l -140,753 c -40,-8 -80,-14 -121,-20 -100,-359 -99,-711 -70,-985 z m -214,-450 c 23,-248 294,-426 435,-503 23,63 -8,79 -8,79 0,0 -75,-17 -94,4 -15,17 -35,91 -42,120 -57,57 -149,185 -108,385 8,39 23,75 41,107 -11,58 -22,124 -31,196 -114,-118 -206,-255 -193,-388 z m 616,319 c -69,-56 -135,-145 -175,-204 -4,-17 -8,-35 -5,-41 5,-12 107,-88 107,-88 0,0 4,66 50,47 47,-19 80,-56 80,-56 l 45,19 -12,97 -67,10 -4,50 h 12 z m -405,-239 c -37,-178 36,-293 89,-349 l 19,32 c 0,0 -80,197 -62,241 2,3 4,8 7,12 -9,35 -20,79 -31,131 -9,-21 -17,-44 -22,-67 z m 384,354 c -82,-30 -255,-109 -341,-248 12,-56 23,-105 33,-144 38,38 99,76 99,76 l 3,67 35,20 19,-37 c 44,60 104,135 167,183 z m -44,238 c -71,-46 -211,-141 -332,-259 8,-68 17,-130 28,-186 96,134 264,207 343,236 z m 307,-641 43,-4 v -58 l -33,-7 -3,-33 54,-8 -10,-50 -25,-28 14,-40 c 0,0 532,8 653,-38 0,0 196,12 264,-97 0,0 107,-6 134,-55 26,-44 34,-438 36,-511 l 292,175 19,-33 -264,-158 719,-66 c 0,0 -425,354 -581,564 -157,211 -394,557 -425,648 -9,26 -12,75 -11,132 l -847,-147 -17,-49 h 3 l -4,-36 -26,-13 z m -39,-605 c 25,-47 60,-62 94,-79 34,-17 105,-87 95,-86 -10,0 -68,-17 -25,-45 43,-28 89,-16 89,-16 0,0 7,76 32,55 26,-20 49,-40 57,-44 9,-3 -15,-38 -15,-38 l 369,-123 c 0,0 66,229 64,240 -2,11 -170,151 -179,155 -9,3 -295,137 -356,138 -61,2 -230,30 -230,30 l -102,10 c 0,0 83,-149 107,-197 z m 2450,450 c 5,19 8,31 8,31 l -92,553 -64,6 v 2 l -292,-147 z m 410,920 c -12,14 -23,28 -35,42 -47,-25 -78,-40 -87,-43 0,0 -1,-1 -1,-1 -53,-63 -126,-141 -196,-183 105,31 247,88 319,185 z m 810,-191 90,508 -317,-394 -14,12 338,421 38,216 c -17,-9 -34,-18 -51,-28 l 3,-3 -499,-508 -13,14 465,473 c -181,-98 -423,-230 -620,-337 125,-143 284,-260 471,-336 36,-15 72,-27 109,-38 z m 980,104 -285,413 67,-497 -18,-3 -73,535 -147,214 -19,-814 c 167,18 329,71 475,152 z m 211,147 -532,532 31,-224 307,-446 c 69,40 134,86 194,138 z m -226,759 534,-358 c 12,25 24,50 35,76 21,53 39,107 53,161 z m -40,27 667,-130 c 19,79 30,159 34,238 l -798,-43 z m -48,10 -58,38 c -3,-8 -5,-15 -9,-23 0,-1 0,-2 0,-2 z m -83,-20 578,-583 c 45,59 85,123 119,191 l -574,384 -116,23 c -2,-5 -4,-10 -7,-15 z m -147,-150 8,-63 551,-550 c 56,50 108,105 155,165 l -577,581 c -34,-57 -82,-102 -137,-133 z m -71,595 c -93,38 -194,24 -272,-28 47,-29 90,-87 90,-87 l 216,-160 c 0,0 -42,-141 -74,-205 -31,-64 -103,22 -103,22 0,0 -29,-44 -62,-87 145,-50 306,21 365,165 61,149 -11,319 -160,380 z m 69,194 c 12,-41 24,-82 34,-116 l 586,539 c -32,31 -65,62 -100,90 z m -6,21 511,504 c -37,30 -76,57 -117,83 l -410,-537 c 5,-16 11,-33 16,-50 z m -414,-42 -72,562 -472,-44 z m -790,407 505,-490 282,-80 c 7,6 15,12 23,18 h -1 l -15,116 -573,544 -122,-11 c -35,-31 -68,-63 -99,-97 z m -836,-478 c 38,24 71,56 96,95 l -112,13 z m -163,-45 -8,63 -58,-54 c 21,-6 44,-9 66,-9 z m 57,-479 -60,39 -40,-122 31,-24 -37,-404 168,-14 z m 1605,41 -169,23 c 10,-15 14,-27 12,-32 -19,-37 -159,-205 -278,-238 -120,-33 -265,-155 -265,-155 l -112,-131 c 1,-2 2,-4 4,-6 z m 53,-85 -509,-375 c 0,0 355,211 547,324 -14,16 -27,33 -38,51 z m 153,-200 5,52 c -3,-2 -6,-4 -8,-5 -8,-4 -63,-34 -145,-79 l -35,-196 z m -3,-34 -187,-233 -96,-545 c 69,-20 139,-34 208,-42 z m 24,61 16,20 c -4,1 -9,3 -13,4 z m -478,589 -264,63 c 30,-29 73,-72 119,-118 h 347 z m -555,438 c 120,-75 245,-184 245,-184 l 365,-103 -480,465 c -48,-55 -92,-114 -130,-178 z m 622,-725 193,-27 c -20,76 -17,157 15,235 1,1 1,2 2,3 l -6,2 h -397 c 75,-76 153,-159 193,-213 z m 380,419 -43,41 10,-83 c 10,7 21,13 31,19 z m -12,-545 c 127,71 51,123 56,136 3,8 -75,112 -131,188 -4,-7 -7,-13 -10,-21 -46,-112 -17,-235 63,-316 9,5 16,9 22,13 z m 197,-178 c -39,-1 -79,3 -119,15 l -38,-48 -77,-848 c 81,-8 161,-7 241,0 l 20,842 z m 28,2 c -2,-1 -4,-1 -6,-1 l 5,-7 z m 84,19 c -22,-7 -43,-13 -65,-16 l -1,-38 141,-205 -29,213 z m 19,7 23,-22 -4,31 c -6,-3 -13,-6 -19,-9 z m -1779,-832 c 58,28 126,95 183,160 -36,7 -63,30 -63,30 l 2,6 -127,-162 z m -735,1259 c 0,-2 0,-4 0,-4 0,0 -22,-529 -51,-624 -23,-78 -68,-416 -82,-528 l 174,31 206,168 c -64,37 -173,109 -172,155 1,66 120,570 120,570 l 43,157 136,29 -21,180 c -55,-1 -110,8 -163,30 -3,1 -5,3 -8,4 z m -789,-1182 c 42,27 89,8 99,14 6,5 130,449 206,723 l -1044,-961 704,126 c 11,52 23,89 35,98 z m 1504,1552 c -41,-89 -111,-157 -195,-196 l 124,-824 146,101 c -91,289 -99,605 -7,911 z m 1523,605 11,203 c -68,-1 -136,-8 -203,-20 l 25,-198 z m -162,-53 75,-583 48,-46 37,644 z m 263,-387 c 46,89 170,304 155,341 -16,37 -96,29 -82,64 2,4 4,9 7,14 l -164,-15 -38,-663 7,-7 -8,-8 v -7 c 65,30 139,41 212,29 l -6,4 c 0,0 -129,160 -83,248 z m 391,-372 109,30 519,363 c -29,49 -62,96 -97,142 z m 519,550 c -21,26 -44,51 -67,76 l -593,-545 c 4,-14 7,-26 10,-35 24,-19 46,-41 64,-64 l 30,8 z m -4900,1846 c 628,-387 925,-1157 704,-1872 l 157,14 c 0,0 -35,48 20,101 56,52 497,-19 497,-19 l 32,-40 218,-19 c 94,192 322,281 523,199 55,-23 102,-56 141,-97 l 398,37 c 315,413 819,639 1334,606 z m -16869,1206 -891,119 -491,-58 66,-236 -21,-15 509,-1575 24,5 46,-116 -25,-12 14,-48 c 0,0 82,-81 298,-199 216,-118 174,-268 174,-268 8,-28 61,-45 61,-45 l 91,30 26,-63 h 2 c 128,-345 309,-1047 309,-1047 0,0 -118,668 -225,1036 l 109,-13 c 26,62 -1,204 -1,204 -66,120 -94,384 -94,384 -21,90 13,370 59,577 15,67 29,158 42,251 105,-34 321,-10 321,-10 0,0 -189,28 -314,64 24,181 41,360 44,396 4,57 -52,177 -52,177 -6,-180 -101,-169 -103,-108 -2,62 73,155 73,155 0,0 19,36 -6,109 0,0 -38,183 -45,306 z m -1508,47 -454,-53 c 89,5 156,-2 182,-6 68,-8 19,-117 19,-117 78,-97 -60,-169 -130,-194 -70,-25 -151,-111 -151,-111 -8,-108 -29,-155 -53,-211 -25,-56 21,-86 21,-86 0,0 36,86 94,85 58,-1 62,-87 62,-87 l 23,33 29,-13 c 0,0 -24,-52 -62,-158 -20,-54 -53,-91 -81,-114 -75,-45 -270,-150 -464,-171 135,-17 338,43 454,84 l 63,-86 c 3,-48 143,-181 143,-181 28,-36 579,-352 709,-430 63,-37 121,-73 164,-101 l 606,-1677 -529,1628 -537,1713 -30,-1 z m 1320,-3791 2,1 -22,55 z m -1119,-750 -37,-20 c 143,-194 409,-407 409,-407 0,0 -237,225 -372,427 z m -505,-268 -50,-26 c 0,-15 0,-23 0,-23 z m 2497,4191 48,95 c 0,0 -74,-35 -48,-95 z m -632,101 c 0,0 -70,-76 -38,-106 32,-30 38,106 38,106 z m -801,-6848 -33,-1 c -108,114 -486,547 -620,1185 66,-621 439,-1085 549,-1210 -6,-33 -26,-73 -26,-73 l 275,34 c -44,7 -145,65 -145,65 z m -1383,6424 31,97 c -106,-54 -31,-97 -31,-97 z m 64,-59 -2,113 -55,-98 z m 32,18 c 102,88 81,266 23,220 -58,-47 -23,-220 -23,-220 z m -646,-316 c 28,-135 98,-58 98,-58 z m 4185,-3125 545,-169 40,131 -195,60 153,495 -155,48 -153,-495 -194,60 z m 4455,-1152 c -23,-23 -48,-37 -75,-42 -28,-6 -57,-4 -88,5 -32,10 -58,27 -78,52 -20,24 -32,52 -38,85 -5,32 -2,66 9,101 11,38 28,69 51,92 22,24 49,40 79,47 31,8 64,6 101,-5 21,-7 39,-16 54,-29 15,-12 27,-27 37,-44 10,-17 17,-36 22,-55 l -8,-26 -150,46 -38,-121 294,-91 56,183 c -5,35 -16,70 -35,106 -18,36 -44,69 -77,99 -33,29 -75,52 -126,68 -48,14 -93,20 -137,16 -44,-3 -85,-15 -122,-34 -37,-20 -70,-47 -97,-81 -27,-35 -48,-75 -63,-122 -14,-46 -19,-91 -16,-135 3,-44 14,-84 34,-122 19,-37 46,-69 80,-97 34,-27 74,-48 122,-63 46,-14 91,-20 134,-18 44,2 84,12 120,30 37,18 67,43 92,76 z m -599,-40 193,626 -156,48 -351,-307 117,379 -155,49 -194,-626 157,-49 351,310 -118,-382 z m -800,247 156,-48 193,626 -155,48 z m -641,199 155,-48 75,243 44,-14 117,-302 184,-57 -146,381 350,241 -194,60 -270,-193 -44,14 78,252 -156,48 z m -642,198 155,-48 75,243 44,-14 117,-302 185,-57 -147,381 350,242 -193,59 -270,-192 -45,13 78,253 -156,48 z m -40,155 -314,97 36,117 234,-72 38,122 -234,72 39,126 313,-97 41,130 -470,145 -193,-625 469,-145 z m -827,113 c 52,-16 98,-20 138,-12 40,8 73,25 100,51 26,26 45,57 56,93 8,25 11,51 9,79 -1,27 -9,53 -21,79 -13,25 -32,48 -58,69 0,0 -1,1 -2,2 l 214,189 -171,53 -192,-178 -79,24 67,217 -156,48 -193,-625 z m 136,181 c -7,-23 -19,-38 -37,-47 -18,-9 -41,-9 -69,-1 l -122,38 45,148 123,-38 c 18,-6 33,-13 43,-23 11,-9 17,-21 20,-34 3,-13 2,-28 -3,-43 z"
   id="path73"
   style="fill:#000000" />

    </g>

   </g>
    <polygon
       class="fil1"
       points="13877,26080 13877,13515 26441,13515 26441,26080 "
       id="polygon79"
       style="clip-rule:evenodd;fill:none;fill-rule:evenodd;image-rendering:optimizeQuality;shape-rendering:geometricPrecision;text-rendering:geometricPrecision"
       transform="matrix(0.00999988,0,0,0.00999988,-96.307549,-53.428593)" />
  </g>
</svg>
