<?xml version="1.0" encoding="UTF-8" standalone="no"?>
<!-- Created with Inkscape (http://www.inkscape.org/) -->

<svg
   width="125.6385mm"
   height="125.6485mm"
   viewBox="0 0 125.6385 125.6485"
   version="1.1"
   id="svg440"
   inkscape:export-filename="treking.svg"
   inkscape:export-xdpi="96.021843"
   inkscape:export-ydpi="96.021843"
   xmlns:inkscape="http://www.inkscape.org/namespaces/inkscape"
   xmlns:sodipodi="http://sodipodi.sourceforge.net/DTD/sodipodi-0.dtd"
   xmlns="http://www.w3.org/2000/svg"
   xmlns:svg="http://www.w3.org/2000/svg">
  <sodipodi:namedview
     id="namedview442"
     pagecolor="#ffffff"
     bordercolor="#000000"
     borderopacity="0.25"
     inkscape:showpageshadow="2"
     inkscape:pageopacity="0.0"
     inkscape:pagecheckerboard="0"
     inkscape:deskcolor="#d1d1d1"
     inkscape:document-units="mm"
     showgrid="false" />
  <defs
     id="defs437">
    <clipPath
       id="id0">
     <path
   d="M 0,0 H 12564 V 12565 H 0 Z"
   id="path27" />

    </clipPath>
  </defs>
  <g
     inkscape:label="Layer 1"
     inkscape:groupmode="layer"
     id="layer1"
     transform="translate(-45.351422,-68.015898)">
    <g
       style="clip-rule:evenodd;fill-rule:evenodd;image-rendering:optimizeQuality;shape-rendering:geometricPrecision;text-rendering:geometricPrecision"
       clip-path="url(#id0)"
       id="g47"
       transform="matrix(0.00999988,0,0,0.00999988,45.351421,68.015901)">
    <g
   id="_2019963337280">
     <path
   class="fil0"
   d="m 681,3123 c -25,8 -55,7 -86,-4 -17,-6 -33,-15 -48,-26 4,-2 8,-4 12,-7 22,-16 30,-43 17,-59 -13,-17 -42,-16 -64,0 -5,4 -9,8 -12,12 -19,-32 -29,-69 -24,-104 11,-74 82,-112 159,-84 76,27 130,110 119,184 -1,6 -3,12 -4,18 375,500 1800,2394 1879,2501 0,-26 1,-58 6,-90 8,-60 14,-64 -6,-110 -19,-45 -9,-37 9,-94 18,-58 -1,-98 2,-162 2,-65 13,-57 30,-95 17,-39 9,-22 13,-86 5,-65 24,-112 53,-198 28,-85 34,-139 67,-195 32,-55 -6,-50 -1,-86 5,-37 12,-60 28,-84 15,-24 8,-30 10,-52 3,-23 -6,-35 18,-61 9,-11 11,-16 10,-21 L -686,1554 v -172 l 3620,2714 c 3,-3 6,-6 9,-9 35,-37 23,-114 67,-177 45,-64 54,-148 126,-267 72,-118 169,-296 216,-396 47,-101 41,-162 132,-319 92,-158 191,-215 278,-269 87,-55 335,-195 335,-195 0,0 -66,-84 -63,-217 3,-132 31,-285 133,-423 103,-138 257,-179 468,-169 211,11 295,135 295,135 0,0 69,-73 199,-147 60,-34 110,-42 165,-35 l 13,1 c 62,10 132,38 226,69 184,61 275,350 310,427 34,77 16,148 16,148 0,0 27,3 58,25 31,21 25,68 0,161 -25,93 -101,201 -142,235 -41,33 -36,42 -50,55 -14,12 -44,-3 -56,10 -11,13 -12,54 -22,82 -10,28 -37,11 -47,9 -9,-1 -24,14 -22,35 2,21 29,41 29,41 43,28 67,180 74,241 8,62 -1,108 -5,162 -5,55 40,139 86,242 45,102 -2,232 -9,280 -7,48 7,61 22,97 14,36 -14,110 -24,153 -9,42 23,89 24,122 0,32 11,49 32,82 21,34 16,37 11,79 -4,41 7,31 27,54 19,22 1,37 4,88 2,51 21,6 63,89 42,82 48,236 94,346 46,111 41,88 62,151 20,63 5,65 -3,107 -7,41 1,61 1,61 0,0 -3,59 -2,93 2,34 -24,70 -22,78 2,8 -10,50 -11,75 0,24 49,10 80,21 31,11 24,28 34,58 10,31 50,25 65,37 14,12 6,48 11,69 5,20 22,51 25,57 2,5 -81,-31 -108,-45 -27,-13 -24,-50 -38,-28 -15,22 8,68 5,113 -3,35 -15,115 -42,178 l 528,510 c 28,-19 63,-28 99,-23 17,2 34,8 48,16 -4,3 -8,6 -11,9 -23,22 -30,50 -17,63 13,14 41,7 63,-14 5,-5 9,-9 13,-15 19,28 28,63 23,99 -11,77 -82,130 -158,119 -77,-11 -130,-82 -119,-158 2,-15 6,-29 12,-41 l -524,-497 c -42,45 -98,57 -187,78 -101,23 -121,2 -135,-26 -14,-28 -37,-82 -32,-138 5,-56 -24,-94 -37,-165 -13,-70 19,-158 15,-206 -5,-47 -31,-48 -40,-72 -10,-24 -6,-15 -27,-18 -21,-3 -26,-12 -42,-44 -17,-31 0,0 -23,-48 -22,-49 -21,-67 -18,-104 4,-37 -25,-95 -18,-129 6,-35 5,-30 -17,-58 -22,-27 -29,-67 -25,-108 4,-40 1,-32 -24,-45 -26,-14 -19,-40 -43,-99 -24,-59 -45,-67 -76,-138 -32,-71 -36,-72 -81,-154 -44,-82 -69,-198 -73,-220 -4,-23 -50,39 -68,83 -19,43 -1,104 10,147 11,43 -1,59 -16,112 -14,53 52,169 84,254 32,85 -4,43 -21,75 -16,32 19,39 33,95 14,56 42,169 53,259 12,89 16,63 40,130 25,67 12,141 13,236 1,32 1,56 3,75 l 787,577 -25,154 -699,-513 v 1 c 1,74 37,269 56,323 19,54 63,297 65,368 2,71 9,159 -1,246 -10,86 46,50 79,77 33,27 45,26 32,102 -13,76 -15,66 5,98 20,32 22,74 11,146 -10,71 29,123 27,240 -2,117 -14,493 8,694 23,201 7,262 -2,326 -9,65 -30,142 -52,173 -21,32 20,35 20,35 0,0 58,6 142,45 85,38 63,121 81,155 17,34 40,23 54,27 14,5 34,22 67,59 34,36 23,47 57,83 34,37 21,54 31,105 10,50 25,13 118,65 92,52 118,75 182,158 64,82 -31,132 -31,132 0,0 2089,522 2261,563 172,42 298,-1 359,12 62,14 -99,116 -287,186 -112,42 -180,60 -245,59 l 420,130 5138,-674 -412,3714 -13979,-383 -973,-5819 4157,1287 c 6,-1 11,-3 16,-4 66,-19 88,-11 92,-8 5,2 248,85 248,85 0,0 31,-21 51,-36 20,-15 38,-6 38,-6 l 639,203 c 0,0 10,-13 13,-63 2,-50 -16,-50 -52,-115 -36,-65 16,-48 34,10 18,58 29,28 34,26 5,-3 11,0 64,9 52,9 2,-40 3,-128 1,-88 -8,-99 -22,-156 -13,-57 1,-50 19,-132 18,-82 0,-69 15,-151 15,-82 0,-68 -8,-125 -8,-56 11,-102 23,-196 12,-95 17,-81 16,-166 -1,-84 27,-113 43,-156 16,-43 9,-52 -12,-155 -21,-102 16,-134 36,-181 19,-48 43,-77 41,-155 -2,-79 39,-104 61,-130 21,-26 3,-91 9,-142 5,-51 46,-65 80,-94 33,-29 -13,-39 -52,-84 -39,-44 -22,-58 -132,-163 -111,-105 -47,-122 -180,-223 -134,-100 -287,-281 -435,-429 -148,-148 -235,-347 -255,-409 -21,-61 -16,76 -21,134 -5,58 -33,103 -60,110 -27,8 -22,75 -25,99 -3,24 17,71 32,128 15,57 -6,131 -21,168 -15,37 0,63 -31,119 -31,56 -87,82 -169,43 -82,-40 -171,-158 -171,-158 0,0 -51,53 -110,111 -59,58 -56,15 -78,-11 -22,-26 -25,-15 -10,-34 16,-19 140,-139 140,-139 0,0 -21,-36 -44,-68 -23,-33 -18,-65 -6,-128 12,-63 20,-139 20,-139 l -106,-31 c 0,0 -51,-9 -34,-36 17,-27 15,-48 15,-48 0,0 41,6 56,8 3,0 9,1 17,2 C 2477,5527 874,3388 681,3123 Z m 12369,2232 v 145 l -1743,-617 -2216,634 -41,-133 2256,-647 z M 2627,5606 c 2,-9 1,-28 2,-52 39,53 63,86 63,86 0,0 -72,72 -107,33 -4,-5 -21,-27 -45,-60 30,4 85,8 87,-7 z m 5064,4687 -308,-95 c 9,-3 15,-5 17,-5 0,0 132,45 291,100 z M 6063,5966 c -8,17 -16,34 -26,48 -5,7 -11,14 -17,20 l -48,-46 68,-44 z M 3671,4199 c -40,85 -129,184 -129,184 l 12,-86 c 0,0 32,-83 43,-125 4,-19 14,-30 29,-41 20,-17 22,-27 34,-49 1,0 1,0 1,1 14,-21 4,-67 26,-80 4,15 4,30 5,48 4,41 3,100 -21,148 z M 5296,2447 c 15,-59 96,-80 191,-70 94,10 198,39 243,62 46,23 195,-75 183,-39 0,0 -30,103 -78,173 -49,69 -90,114 -106,123 -16,9 1,-50 -65,-22 -66,28 -145,62 -218,11 -72,-51 -165,-178 -150,-238 z"
   id="path44"
   style="fill:#000000" />

    </g>

   </g>
    <polygon
       class="fil1"
       points="0,12565 0,0 12564,0 12564,12565 "
       id="polygon49"
       style="clip-rule:evenodd;fill:none;fill-rule:evenodd;image-rendering:optimizeQuality;shape-rendering:geometricPrecision;text-rendering:geometricPrecision"
       transform="matrix(0.00999988,0,0,0.00999988,45.351421,68.015901)"
       inkscape:export-filename="rental.svg"
       inkscape:export-xdpi="96.029488"
       inkscape:export-ydpi="96.029488" />
  </g>
</svg>
