<?xml version="1.0" encoding="UTF-8" standalone="no"?>
<!-- Created with Inkscape (http://www.inkscape.org/) -->

<svg
   width="125.64849mm"
   height="125.64851mm"
   viewBox="0 0 125.64849 125.64851"
   version="1.1"
   id="svg440"
   inkscape:export-filename="bitmap.svg"
   inkscape:export-xdpi="96.021843"
   inkscape:export-ydpi="96.021843"
   xmlns:inkscape="http://www.inkscape.org/namespaces/inkscape"
   xmlns:sodipodi="http://sodipodi.sourceforge.net/DTD/sodipodi-0.dtd"
   xmlns="http://www.w3.org/2000/svg"
   xmlns:svg="http://www.w3.org/2000/svg">
  <sodipodi:namedview
     id="namedview442"
     pagecolor="#ffffff"
     bordercolor="#000000"
     borderopacity="0.25"
     inkscape:showpageshadow="2"
     inkscape:pageopacity="0.0"
     inkscape:pagecheckerboard="0"
     inkscape:deskcolor="#d1d1d1"
     inkscape:document-units="mm"
     showgrid="false" />
  <defs
     id="defs437">
    <clipPath
       id="id2">
     <path
   d="M 0,13515 H 12565 V 26080 H 0 Z"
   id="path33" />

    </clipPath>
  </defs>
  <g
     inkscape:label="Layer 1"
     inkscape:groupmode="layer"
     id="layer1"
     transform="translate(-51.654462,-82.173208)">
    <g
       style="clip-rule:evenodd;fill-rule:evenodd;image-rendering:optimizeQuality;shape-rendering:geometricPrecision;text-rendering:geometricPrecision"
       clip-path="url(#id2)"
       id="g67"
       transform="matrix(0.00999988,0,0,0.00999988,51.654463,-52.975176)">
    <g
   id="g65">
     <path
   class="fil0"
   d="m 7326,23223 c 0,0 124,110 80,123 -43,14 -80,-123 -80,-123 z m 25872,-9445 v 147 l -1113,392 -47,-131 z m 0,6259 v 5102 l -34726,2475 v -4586 l 6050,824 c -123,-22 -264,-70 -396,-168 0,0 -92,-48 -111,-121 -19,-73 -146,-132 -173,-130 l -33,12 -103,-53 21,-36 -32,-25 -32,27 -71,-84 4,-41 -47,4 -87,-116 c 0,0 -63,-74 91,-150 0,0 80,-162 295,-290 0,0 39,-71 68,-131 30,-60 74,-63 125,-19 50,43 7,60 114,-19 43,-33 144,-133 258,-253 80,106 205,206 205,206 0,0 -100,-127 -165,-248 155,-164 324,-352 405,-451 148,-179 470,-387 680,-403 150,-16 263,-16 263,-16 0,0 -108,-22 -254,-27 4,-168 16,-805 -9,-992 -24,-173 -128,-601 -168,-761 l -84,-44 -8,2 c 0,-2 1,-4 1,-6 l -273,-145 c 28,154 115,383 115,383 l -43,14 135,442 -96,38 c -66,-148 -184,-677 -242,-946 l -116,-61 c 2,204 2,524 -10,633 -18,164 -28,634 -28,634 l -61,-5 25,-710 21,-580 -5468,-2845 v -158 l 5474,2848 2,-69 -142,-209 c 50,-275 245,-509 245,-509 0,0 -220,186 -300,433 -182,-266 -133,-444 -120,-791 14,-368 187,-466 187,-466 l 73,22 c 0,0 36,-108 -4,-190 -40,-82 -180,-177 -22,-532 131,-297 436,-336 612,-314 -100,41 -379,175 -426,411 90,-269 511,-373 511,-373 l 91,-7 c 0,0 178,-170 268,-152 l 45,102 48,-31 111,29 -11,25 c 0,0 202,0 294,32 126,97 280,243 280,243 0,0 -119,-144 -226,-247 20,-19 47,-55 54,-106 0,0 -24,-273 72,-314 l -79,-52 c 0,0 116,-325 393,-397 267,-68 647,75 616,449 l -462,-42 458,86 c 16,4 249,68 260,127 0,0 70,120 -82,179 0,0 -39,30 -283,-61 0,0 -21,43 8,119 30,76 -15,110 -66,69 0,0 -24,40 -23,56 1,17 -4,38 -25,33 0,0 14,50 -29,63 -43,14 -44,54 -42,75 1,20 -31,117 -239,26 -106,-141 -195,-354 -195,-354 0,0 64,226 158,370 -43,35 -121,106 -108,153 18,63 161,239 169,304 8,64 14,94 14,94 l 33,-3 c 0,0 31,137 43,208 12,71 48,241 89,286 l -48,41 c -31,35 -110,111 -221,86 -144,-31 -416,-96 -416,-96 0,0 276,121 420,153 144,31 237,-104 237,-104 0,0 120,-73 156,-52 l 32,-125 c 0,0 108,-8 128,31 l -40,146 c 0,0 120,110 102,142 -18,32 -59,39 -76,26 0,0 66,118 -23,111 0,0 43,116 -41,88 0,0 43,116 -97,75 l -31,77 -21,-8 -143,418 -402,1152 6,4 429,-1092 c 4,12 8,24 9,35 3,41 99,98 102,149 4,51 -16,372 14,547 29,174 63,311 63,311 l -2,122 731,-223 41,132 -745,228 c 27,120 67,305 80,427 21,191 149,573 112,623 -190,-38 -425,-28 -425,-28 0,0 236,24 427,73 5,98 14,338 -20,458 -43,153 0,367 -31,465 -30,97 -87,656 -65,820 0,0 8,8 16,21 -91,6 -243,33 -328,144 98,-84 258,-90 362,-83 31,17 166,96 185,197 22,114 -40,51 -40,51 0,0 127,164 277,204 149,40 387,-46 407,85 0,0 5,4 12,11 l 10480,-1394 1768,1237 2246,-609 c -630,-15 -1222,-396 -1476,-1018 -341,-836 60,-1791 897,-2133 262,-107 535,-141 798,-112 -101,-368 -97,-729 -65,-1006 -126,-126 -231,-278 -217,-428 24,-265 307,-449 453,-527 -26,-66 17,-50 17,-50 l -17,-17 c 0,0 28,-131 58,-191 31,-60 161,-75 237,-89 76,-14 130,-57 130,-57 l 81,-19 c 0,0 18,-90 57,-102 39,-13 100,3 100,3 l 336,-263 c -33,-147 -159,-187 -196,-236 l -4016,2943 -5278,-1654 14,-141 h -1 l 5240,1642 4017,-2945 -21,-25 -95,-23 c 0,0 -11,107 -75,116 -65,9 -47,-124 -47,-124 0,0 -120,100 -157,108 -38,9 -49,-18 -70,-46 -22,-29 -38,-26 -59,-34 -20,-9 -7,-59 -7,-59 -76,4 -77,-47 -99,-68 -23,-22 -84,37 -99,16 -16,-21 -29,-128 -29,-128 0,0 -60,-57 -71,-83 -11,-27 32,-38 32,-38 l -15,-79 c 0,0 -289,60 -330,-39 -23,-59 211,-546 482,-657 272,-111 587,-76 645,-59 58,18 61,108 61,108 l 96,84 c 55,162 -62,350 -62,350 l 107,38 c 0,0 83,-191 148,-299 65,-109 331,-217 550,-297 220,-79 446,-4 675,-19 57,-4 112,-7 165,-7 l 1027,-753 1636,743 19,161 -1638,-744 -829,608 c 83,13 168,37 262,77 231,100 232,260 285,498 52,238 -94,574 -94,574 0,0 374,338 462,503 88,166 -63,381 -63,381 0,0 42,3 86,36 44,33 -24,75 -59,113 -36,39 -320,219 -320,219 l -110,109 6,26 c 0,0 145,-8 146,43 0,51 -117,78 -117,78 l -5,63 -162,67 -27,-30 -105,672 c 0,0 91,-17 96,-4 6,13 -7,70 -7,70 l -83,24 c 107,28 280,89 370,202 151,-167 342,-304 565,-395 794,-324 1701,57 2025,851 309,758 -23,1618 -745,1977 z m -1813,-5407 c 9,17 21,29 34,37 14,7 28,11 44,10 16,0 32,-3 49,-9 29,-11 49,-25 61,-43 11,-18 13,-36 6,-55 -5,-16 -14,-26 -27,-32 -13,-6 -29,-9 -49,-10 -19,0 -41,0 -66,2 -27,2 -55,3 -84,3 -29,0 -56,-3 -83,-9 -27,-6 -51,-18 -72,-36 -21,-17 -37,-43 -48,-77 -15,-41 -17,-79 -6,-115 11,-37 31,-68 62,-96 31,-27 69,-49 116,-66 42,-15 82,-23 119,-22 38,1 71,9 101,25 30,16 56,41 77,73 l -139,79 c -8,-12 -17,-22 -29,-27 -12,-6 -24,-8 -38,-8 -14,0 -26,3 -38,7 -15,5 -28,13 -38,22 -11,9 -18,20 -23,32 -4,12 -4,25 0,37 5,14 14,23 26,29 12,5 27,8 45,10 18,1 37,1 58,1 28,-1 58,-2 88,-2 30,0 59,3 87,9 28,6 53,18 75,36 22,17 40,43 52,77 13,37 16,73 8,109 -7,35 -26,68 -56,99 -29,30 -72,55 -127,75 -47,17 -91,25 -132,25 -42,0 -79,-9 -112,-27 -33,-17 -60,-44 -81,-79 z m -2439,484 -333,119 27,178 249,-90 16,109 -249,89 28,187 332,-119 17,112 -458,165 -104,-699 458,-164 z m 343,340 154,-56 c 26,-9 44,-22 54,-38 11,-16 12,-35 4,-57 -8,-22 -21,-36 -40,-42 -19,-5 -41,-3 -67,6 l -153,55 z m -114,194 -234,-651 336,-121 c 45,-16 86,-23 122,-20 36,3 67,15 93,35 26,19 45,47 57,81 11,30 14,56 10,79 -3,24 -13,45 -29,63 -15,18 -35,33 -59,46 l 3,8 c 32,-8 61,-9 87,-4 26,5 48,16 67,34 19,17 34,40 44,70 13,36 16,70 9,102 -6,33 -23,63 -50,89 -26,26 -63,48 -109,65 z m 219,-593 c -7,-21 -20,-34 -37,-39 -17,-4 -38,-2 -63,7 l -142,51 44,121 139,-50 c 26,-9 44,-21 55,-36 10,-15 12,-32 4,-54 z m 193,-290 162,-59 234,652 -162,58 z m 264,-95 162,-59 91,253 46,-16 109,-325 192,-69 -137,410 381,238 -201,72 -294,-190 -47,16 94,263 -162,58 z m 1206,-280 -327,117 44,122 244,-88 45,127 -244,88 48,131 326,-118 49,136 -489,176 -234,-651 489,-176 z m -2460,6061 -611,-167 -102,-72 -11,16 59,41 -89,-24 -20,-20 c 52,-82 71,-183 49,-281 l 798,43 c 2,57 0,114 -6,170 l -812,28 1,19 809,-28 c -12,94 -33,187 -65,275 z m -90,197 -475,-331 558,152 c -23,62 -51,122 -83,179 z m -1099,639 -12,-201 195,18 c 25,25 58,41 85,12 46,-50 125,-56 86,-127 -39,-71 -169,-228 -138,-302 8,-20 22,-59 36,-105 l 400,525 c -55,33 -112,62 -173,87 -157,64 -320,94 -479,93 z m -743,-245 23,-22 504,47 -25,196 c -181,-36 -353,-111 -502,-221 z m -2,-24 -14,13 c -7,-5 -14,-11 -21,-16 z m -853,-118 c 49,-64 78,-141 83,-222 52,-18 88,-31 88,-31 0,0 5,8 14,19 43,95 94,184 153,266 z m -604,-134 c -31,-75 -29,-155 -1,-225 126,119 211,199 226,213 42,40 209,2 348,-40 -20,95 -85,178 -181,217 -154,63 -329,-11 -392,-165 z m -563,-680 c -6,51 24,175 24,175 0,0 -50,129 -178,181 -96,40 -295,94 -389,119 -201,-415 -560,-711 -973,-843 l 122,-662 52,14 20,-177 169,39 c 0,0 647,606 1194,1120 -17,0 -37,6 -41,34 z m -900,1850 -647,-304 -129,-136 c 4,-6 7,-11 11,-16 l 877,212 c -29,84 -66,166 -112,244 z m -801,597 -261,-779 v -78 l -10,-1 -9,-2 -4,14 -5,-16 c 16,-1 32,-3 48,-6 l 481,782 c -21,10 -42,19 -64,28 -58,24 -117,43 -176,58 z m -1590,-1475 807,217 -174,61 -651,-7 c -4,-91 3,-182 18,-271 z m 178,-468 557,276 145,170 -812,-225 c 29,-77 66,-151 110,-221 z m 809,-576 220,653 -11,154 c -20,4 -39,8 -59,15 l -394,-740 c 15,-7 29,-13 44,-19 66,-27 133,-48 200,-63 z m 406,819 c -30,-9 -61,-14 -92,-17 l 204,-815 c 13,3 27,5 41,8 z m 387,-192 c -6,-15 -12,-29 -18,-43 l 218,-410 c 64,42 124,89 180,141 z m 48,151 c -10,-45 -25,-90 -41,-133 l 387,-317 c 61,59 117,124 166,194 z m 622,-65 -626,359 -13,-12 c 43,-71 42,-165 22,-263 l 518,-259 c 37,55 70,114 99,175 z m -704,515 c 1,-25 -3,-46 -3,-46 l 83,-89 631,-362 c 7,13 13,27 19,42 26,63 46,128 62,193 z m 117,66 -122,-32 c 1,-4 2,-9 3,-13 l 798,-265 c 15,72 25,144 28,215 z m 48,13 660,-89 c 3,88 -3,175 -17,261 z m -224,15 c 15,-13 27,-23 34,-29 5,-4 9,-9 12,-14 l 81,22 -111,15 2,19 157,-21 688,183 c -10,55 -24,110 -41,163 l -873,-211 c 24,-39 41,-82 51,-127 z m -62,241 -29,-57 c 2,-3 5,-6 7,-9 l 94,100 z m -195,63 c 47,-19 88,-45 123,-76 l 58,27 391,758 c -49,33 -101,63 -155,90 l -478,-779 c 20,-5 41,-11 61,-20 z m 152,-105 15,29 -29,-14 c 5,-5 10,-10 14,-15 z m -353,-78 21,-12 c 105,33 230,68 237,65 4,-2 27,-22 58,-48 v 0 c -37,47 -85,84 -143,108 -42,17 -84,25 -126,26 z m -53,127 40,-105 40,117 c -28,-1 -54,-5 -80,-12 z m -291,214 -258,598 c -71,-40 -137,-88 -199,-141 z m 81,-187 -60,139 -492,492 c -67,-59 -129,-127 -183,-201 z m -92,-200 c 26,61 65,114 112,155 l -7,15 -759,444 c -47,-66 -88,-137 -122,-213 z m -32,-127 c 1,18 4,37 9,55 l -163,-2 151,-54 z m -2,-21 -2,1 -835,-224 c 14,-72 33,-143 58,-211 l 822,227 c -31,64 -46,135 -43,207 z m 97,-297 2,3 c -15,19 -29,38 -41,59 l -120,-141 z m 169,-119 c -60,24 -111,61 -152,106 l -3,-2 -385,-758 c 51,-33 104,-63 160,-89 l 393,738 c -4,2 -9,3 -13,5 z m 80,122 -7,95 -154,-76 c 31,-29 68,-54 110,-71 7,-3 13,-5 20,-7 z m 2,-36 -15,-29 c 6,-2 12,-3 18,-4 z m 75,-42 -31,124 -27,-51 5,-68 c 18,-3 35,-5 53,-5 z m -6,-76 c -14,0 -28,2 -42,3 l 8,-104 z m 18,280 -30,-55 37,-149 c 0,0 0,0 1,0 l 45,135 z m -193,448 75,-44 -55,55 c -7,-3 -13,-7 -20,-11 z m -72,42 c 11,9 24,17 36,25 l -104,104 52,-120 z m 82,-217 c 4,11 8,20 9,23 2,4 43,20 98,38 l 7,19 -142,83 c -11,-8 -21,-16 -32,-26 z m -94,-42 -28,14 h -41 c -3,-12 -6,-23 -8,-35 z m 21,-127 -103,37 c 1,-44 10,-87 26,-127 z m -31,-133 -21,-6 c 4,-5 7,-10 10,-16 z m 228,14 -18,-8 5,-72 22,42 z m 38,16 -21,-9 5,-20 z m -199,245 h -45 l 15,-8 z m 20,-14 -25,-7 18,-9 c 2,5 5,11 7,16 z m -16,-122 13,26 v 1 l -21,-24 z m -9,-17 -12,4 -87,-102 c 2,-4 4,-9 6,-13 l 43,12 z m 68,-55 -17,37 -33,11 -44,-85 103,28 z m -36,77 -5,-12 13,-4 z m -71,-208 154,76 -25,30 -127,-35 -23,-46 c 7,-8 14,-17 21,-25 z m -95,254 116,-42 31,37 -10,22 c 0,0 3,8 8,20 l -38,20 -105,-28 c -1,-10 -2,-19 -2,-29 z m 26,121 c 0,0 0,0 0,-1 l 33,-17 99,2 -56,131 c -32,-32 -58,-71 -76,-115 z m 178,186 71,-71 -33,86 c -13,-4 -26,-9 -38,-15 z m 246,-587 -24,32 -39,-116 c 26,3 51,9 76,17 z m 232,-69 87,-164 71,-58 c 15,41 28,83 38,124 z m 178,152 c -18,15 -56,49 -92,80 -5,-19 -11,-38 -19,-57 -21,-52 -51,-98 -88,-136 l 5,-10 216,-108 c 18,88 16,171 -22,231 z m -219,-132 c -1,-2 -3,-3 -5,-5 l 15,-83 80,-65 -78,147 z m 62,356 c 0,2 0,3 -1,5 l -118,-85 32,-171 7,-15 c 23,27 42,59 56,93 12,30 19,60 23,90 -19,30 -6,67 1,83 z m 130,-617 -41,33 31,-57 c 3,8 6,16 10,24 z m -108,-225 c 25,44 58,107 88,178 l -59,111 -98,80 z m -431,177 -205,-608 c 83,-18 167,-28 250,-29 z m 64,-637 c 71,0 142,5 212,17 l -204,817 c -2,0 -4,0 -5,0 l -51,-151 z m -570,848 -516,-255 c 42,-65 89,-126 143,-183 z m -360,-452 c 62,-64 130,-122 206,-173 l 373,734 -176,-88 z m -332,1181 c -15,-70 -25,-140 -29,-210 l 599,7 z m 65,208 c -25,-63 -45,-126 -61,-189 l 621,-221 218,2 c 4,12 8,24 12,36 l -777,401 c -4,-10 -9,-20 -13,-29 z m 566,640 279,-645 141,-141 c 22,11 44,21 67,29 l -320,835 c -57,-22 -113,-48 -167,-78 z m 398,144 c -73,-14 -144,-33 -213,-59 l 320,-836 c 43,12 88,18 133,17 l 15,46 z m 287,-737 244,724 c -82,20 -164,31 -246,34 z m -18,-56 -3,814 c -83,2 -166,-4 -247,-18 l 247,-804 z m 469,-87 602,282 c -43,70 -93,137 -149,199 z m 440,495 c -60,64 -128,122 -201,173 l -379,-734 94,44 z m -255,-1987 -212,398 c -38,-85 -78,-156 -101,-193 l 61,-327 c 88,32 172,73 252,122 z m -547,-1510 c 125,118 264,211 331,252 l -140,753 c -40,-8 -81,-14 -121,-20 -101,-358 -100,-711 -70,-985 z m -215,-450 c 23,-248 294,-426 436,-503 23,63 -9,79 -9,79 0,0 -75,-17 -93,4 -15,17 -35,91 -43,120 -57,57 -149,185 -107,385 8,39 22,75 41,107 -11,58 -22,124 -31,196 -115,-118 -206,-255 -194,-388 z m 617,319 c -69,-56 -136,-145 -176,-204 -4,-17 -7,-35 -5,-41 5,-12 107,-88 107,-88 0,0 4,67 51,48 46,-20 79,-57 79,-57 l 45,19 -11,97 -68,10 -3,50 11,1 z m -405,-239 c -38,-178 35,-293 88,-349 l 20,32 c 0,0 -80,197 -63,241 2,3 5,8 7,12 -9,35 -19,79 -30,131 -10,-21 -17,-43 -22,-67 z m 383,354 c -81,-30 -255,-109 -340,-248 11,-56 22,-105 32,-144 39,38 99,76 99,76 l 4,67 35,20 18,-37 c 44,61 105,135 168,183 z m -44,238 c -71,-46 -211,-141 -332,-259 8,-68 18,-130 28,-186 96,134 264,207 343,236 z m 308,-641 42,-4 1,-58 -34,-7 -3,-32 54,-9 -10,-50 -25,-28 15,-40 c 0,0 532,8 653,-38 0,0 196,12 263,-97 0,0 107,-6 135,-55 25,-44 34,-438 35,-511 l 292,175 20,-33 -265,-158 719,-66 c 0,0 -425,354 -581,564 -156,211 -394,557 -425,648 -9,26 -12,75 -10,132 l -848,-147 -17,-49 h 4 l -5,-36 -26,-13 z m -39,-605 c 25,-47 60,-62 94,-79 34,-17 104,-87 94,-86 -10,0 -68,-17 -25,-45 43,-28 89,-16 89,-16 0,0 7,76 33,55 25,-20 48,-40 57,-43 9,-4 -16,-38 -16,-38 l 369,-124 c 0,0 67,229 64,240 -2,11 -170,151 -179,155 -8,4 -295,137 -356,139 -61,1 -230,29 -230,29 l -101,10 c 0,0 82,-149 107,-197 z m 2450,450 c 4,19 7,31 7,31 l -91,553 -64,6 v 2 l -293,-147 z m 410,920 c -12,14 -24,28 -36,42 -47,-24 -78,-40 -86,-43 -1,0 -1,0 -2,-1 -53,-63 -126,-141 -195,-183 104,31 246,89 319,185 z m 809,-191 90,508 -316,-394 -15,12 338,421 38,216 c -16,-9 -33,-18 -51,-28 l 3,-3 -499,-508 -13,14 465,473 c -180,-98 -422,-230 -620,-337 125,-143 284,-259 472,-336 36,-15 72,-27 108,-38 z m 981,104 -285,413 67,-497 -19,-3 -72,535 -148,214 -19,-814 c 168,18 329,71 476,152 z m 211,147 -532,533 30,-225 307,-446 c 69,40 134,86 195,138 z m -226,759 534,-358 c 12,25 23,50 34,76 22,53 39,107 53,161 z m -41,27 667,-130 c 19,80 31,159 34,238 l -797,-43 z m -48,10 -58,38 c -3,-7 -5,-15 -8,-23 0,-1 -1,-2 -1,-2 z m -82,-20 578,-583 c 44,59 84,123 118,191 l -573,384 -116,23 c -3,-5 -5,-10 -7,-15 z m -148,-150 9,-63 550,-550 c 56,50 108,105 155,165 l -577,581 c -34,-57 -82,-102 -137,-133 z m -70,595 c -93,38 -195,24 -272,-28 46,-29 89,-87 89,-87 l 216,-160 c 0,0 -42,-141 -73,-205 -31,-64 -104,22 -104,22 0,0 -29,-44 -62,-87 146,-50 307,21 365,165 61,149 -10,319 -159,380 z m 68,194 c 13,-41 25,-82 35,-116 l 585,539 c -31,31 -64,62 -99,91 z m -6,21 512,504 c -38,30 -77,57 -118,83 l -409,-537 c 5,-16 10,-33 15,-50 z m -413,-42 -72,562 -472,-44 z m -791,407 506,-490 281,-80 c 7,6 15,13 23,18 h -1 l -14,116 -573,544 -123,-11 c -35,-31 -68,-63 -99,-97 z m -836,-478 c 38,24 72,56 96,95 l -112,13 z m -163,-45 -7,63 -59,-54 c 22,-6 44,-9 66,-9 z m 57,-479 -60,39 -40,-122 32,-23 -37,-405 167,-14 z m 1605,41 -169,23 c 10,-15 15,-27 12,-32 -18,-37 -159,-205 -278,-238 -119,-33 -264,-155 -264,-155 l -113,-131 c 1,-2 3,-4 4,-6 z m 53,-85 -509,-375 c 0,0 355,211 548,324 -15,16 -27,33 -39,51 z m 153,-200 5,52 c -3,-2 -5,-4 -8,-5 -8,-4 -63,-34 -145,-79 l -34,-196 z m -3,-34 -186,-233 -97,-545 c 69,-20 139,-34 209,-42 z m 25,61 16,20 c -5,1 -9,3 -14,4 z m -478,589 -265,63 c 31,-29 74,-72 120,-118 h 346 z m -556,438 c 121,-75 245,-184 245,-184 l 365,-103 -479,465 c -48,-55 -92,-114 -131,-178 z m 622,-724 193,-28 c -19,76 -16,157 15,235 1,1 2,2 2,3 l -5,2 h -397 c 74,-76 152,-159 192,-212 z m 380,418 -43,41 11,-83 c 10,7 20,13 31,19 z m -11,-545 c 126,71 50,123 55,136 4,8 -75,112 -131,188 -4,-7 -7,-13 -10,-21 -46,-112 -17,-235 64,-316 8,5 15,9 22,13 z m 196,-178 c -39,-1 -79,3 -118,15 l -38,-48 -78,-848 c 81,-8 162,-7 241,0 l 20,842 z m 28,2 c -2,-1 -4,-1 -6,-1 l 6,-7 z m 84,19 c -21,-7 -43,-13 -65,-16 l -1,-38 141,-205 -28,213 z m 20,8 22,-23 -4,31 c -6,-3 -12,-6 -18,-8 z m -1779,-833 c 57,28 125,95 182,160 -36,7 -62,30 -62,30 l 2,6 -127,-162 z m -736,1259 c 0,-2 0,-4 0,-4 0,0 -22,-529 -50,-624 -24,-78 -68,-416 -83,-528 l 174,31 207,168 c -64,38 -174,109 -173,156 1,66 120,569 120,569 l 43,157 136,29 -21,180 c -54,-1 -109,9 -163,30 -2,1 -5,3 -7,4 z m -788,-1182 c 42,27 88,8 98,14 6,5 131,449 206,723 l -1043,-961 704,126 c 10,52 22,89 35,98 z m 1504,1552 c -42,-89 -112,-157 -195,-196 l 123,-824 146,101 c -91,289 -99,605 -7,912 z m 1522,606 12,202 c -69,-1 -137,-8 -204,-20 l 26,-198 z m -161,-54 74,-583 48,-46 37,644 z m 262,-387 c 47,89 171,304 155,341 -16,37 -96,29 -81,64 1,4 4,9 7,14 l -165,-15 -38,-663 7,-7 -8,-8 v -7 c 65,30 139,41 212,29 l -6,4 c 0,0 -129,160 -83,248 z m 391,-372 109,30 519,363 c -29,49 -61,97 -97,142 z m 519,550 c -21,26 -43,51 -67,76 l -593,-545 c 4,-14 8,-26 10,-35 25,-19 46,-41 65,-64 l 30,8 z m -4900,1847 c 629,-387 925,-1158 704,-1873 l 157,14 c 0,0 -35,48 21,101 55,52 497,-19 497,-19 l 31,-40 219,-19 c 94,192 321,281 522,199 55,-23 103,-56 141,-97 l 398,37 c 316,413 820,639 1334,606 z m -16869,1205 -891,119 -491,-57 67,-237 -22,-15 509,-1575 25,5 46,-116 -25,-12 13,-48 c 0,0 83,-81 298,-199 216,-118 175,-268 175,-268 8,-28 61,-45 61,-45 l 90,30 26,-63 h 2 c 128,-345 309,-1047 309,-1047 0,0 -118,668 -225,1036 l 110,-13 c 25,62 -2,204 -2,204 -66,120 -94,384 -94,384 -21,90 14,370 60,577 14,67 29,158 42,252 104,-35 320,-11 320,-11 0,0 -189,28 -313,64 23,181 40,360 43,396 4,57 -51,177 -51,177 -7,-180 -101,-169 -104,-108 -2,62 73,155 73,155 0,0 20,36 -6,109 0,0 -38,183 -45,306 z m -1508,47 -454,-53 c 90,5 157,-2 183,-5 67,-9 18,-117 18,-117 78,-98 -60,-169 -130,-195 -70,-25 -151,-111 -151,-111 -8,-108 -28,-155 -53,-211 -24,-56 21,-86 21,-86 0,0 37,86 95,85 57,-1 61,-86 61,-86 l 23,32 30,-13 c 0,0 -25,-52 -63,-158 -20,-54 -53,-91 -81,-114 -75,-45 -270,-149 -463,-171 134,-17 337,44 453,84 l 63,-86 c 3,-48 143,-181 143,-181 28,-36 579,-352 710,-430 62,-37 120,-73 164,-101 l 605,-1677 -529,1628 -536,1713 -31,-1 z m 1320,-3791 2,1 -22,55 z m -1119,-750 -37,-20 c 143,-194 410,-407 410,-407 0,0 -238,225 -373,427 z m -505,-268 -49,-26 c -1,-15 -1,-23 -1,-23 z m 2498,4191 47,95 c 0,0 -74,-35 -47,-95 z m -632,101 c 0,0 -71,-76 -39,-106 32,-29 39,106 39,106 z m -802,-6848 -32,-1 c -109,114 -487,547 -621,1185 66,-620 439,-1085 549,-1210 -6,-32 -26,-73 -26,-73 l 275,34 c -44,7 -145,65 -145,65 z m -1382,6424 31,97 c -106,-54 -31,-97 -31,-97 z m 63,-59 -2,113 -54,-98 z m 32,18 c 102,88 81,266 23,220 -58,-47 -23,-220 -23,-220 z m -645,-316 c 27,-135 97,-58 97,-58 z"
   id="path63"
   style="fill:#000000" />

    </g>

   </g>
    <polygon
       class="fil1"
       points="0,26080 0,13515 12565,13515 12565,26080 "
       id="polygon69"
       style="clip-rule:evenodd;fill:none;fill-rule:evenodd;image-rendering:optimizeQuality;shape-rendering:geometricPrecision;text-rendering:geometricPrecision"
       transform="matrix(0.00999988,0,0,0.00999988,51.654463,-52.975176)" />
  </g>
</svg>
