<?xml version="1.0" encoding="UTF-8" standalone="no"?>
<!-- Created with Inkscape (http://www.inkscape.org/) -->

<svg
   width="66.056793mm"
   height="20.857386mm"
   viewBox="0 0 66.056793 20.857386"
   version="1.1"
   id="svg308"
   xmlns="http://www.w3.org/2000/svg"
   xmlns:svg="http://www.w3.org/2000/svg">
  <defs
     id="defs305" />
  <g
     id="layer1"
     transform="translate(-67.993737,-70.42765)">
    <path
       d="M 149.39693,38.515545 H 52.647234 v 96.749695 h 96.749696 z"
       style="fill:#000000;fill-opacity:1;fill-rule:evenodd;stroke:none;stroke-width:0.352778"
       id="path39" />
    <g
       id="g97"
       transform="matrix(0.35277777,0,0,-0.35277777,44.396926,240.26524)">
      <path
         d="m 88.3848,435.1377 c -0.0944,-0.1483 -0.1831,-0.2583 -0.2667,-0.3311 0,-0.0621 0.0402,-0.0944 0.1264,-0.0944 v -0.0326 c -0.1049,0 -0.1587,-0.0213 -0.1587,-0.0618 0,-0.2636 -0.1157,-1.1098 -0.3476,-2.5424 -0.0402,-0.4524 -0.1613,-1.0505 -0.3634,-1.7994 -0.1672,-1.3573 -0.3047,-2.1816 -0.4096,-2.4778 -0.0618,-1.0718 -0.1533,-1.8989 -0.2667,-2.4752 0.0298,0 0.0459,-0.0108 0.0459,-0.0323 -0.032,0 -0.0459,-0.0108 -0.0459,-0.0321 v -0.299 l -0.032,-0.159 c 0.0215,0 0.032,-0.0111 0.032,-0.0326 -0.0431,-0.0941 -0.0646,-0.2662 -0.0646,-0.5196 v -0.0326 l -0.0618,-0.0938 0.0297,-0.0621 c -0.0187,-0.0431 -0.1159,-0.5361 -0.2832,-1.4842 0,-0.0431 0.0216,-0.0621 0.0624,-0.0621 l 0.0941,0.0621 h 0.3016 l 0.1565,0.0323 c 0,-0.0216 0.0105,-0.0323 0.032,-0.0323 l 0.0647,0.0323 c 0,-0.0216 0.0082,-0.0323 0.0297,-0.0323 0.0754,0.062 0.1375,0.0943 0.1911,0.0943 0.1051,0 0.2341,0.6169 0.3931,1.8477 l -0.032,0.0623 c 0.1695,0.999 0.2529,1.5268 0.2529,1.5778 0.0541,0 0.1159,-0.0213 0.1887,-0.0615 0.1049,0 0.4848,0.0105 1.1367,0.0292 0.2855,-0.0403 0.4629,-0.0618 0.5386,-0.0618 h 0.1562 l 0.1749,0.0326 0.4096,-3.157 c 0,-0.3903 0.0995,-0.5845 0.2988,-0.5845 l 0.0646,0.0326 v -0.0326 c 0.1565,0.0621 0.3558,0.0947 0.5981,0.0947 h 0.0323 c 0.0729,0.032 0.1106,0.0641 0.1106,0.0938 v 0.0647 c 0,0.0405 -0.0377,0.062 -0.1106,0.062 -0.043,0 -0.0833,0.2047 -0.1264,0.6169 0.0213,0 0.0431,0.0294 0.0646,0.0941 l -0.3478,2.1926 c -0.0861,0.6735 -0.2797,1.8533 -0.5842,3.5362 h 0.0323 l -0.0969,0.741 c 0.0215,0 0.0323,0.0107 0.0323,0.032 -0.0323,0 -0.051,0.1213 -0.0621,0.3637 l 0.0298,0.1267 c -0.0298,0 -0.0513,0.019 -0.0621,0.0618 v 0.159 c -0.0941,1.7343 -0.1885,2.8605 -0.2829,3.3747 0,0.5578 -0.0805,0.8645 -0.2367,0.9158 h -0.0646 c -0.0298,0 -0.0513,-0.0243 -0.0621,-0.0779 -0.2313,0.0536 -0.6168,0.0995 -1.1531,0.1428 -0.0213,0 -0.0508,-0.011 -0.0939,-0.0325 0,0.0215 -0.0107,0.0325 -0.0323,0.0325 0,0.04 0.0108,0.0834 0.0323,0.1265 0,0.0295 -0.0215,0.051 -0.0646,0.0618 z m 143.9374,-0.2826 c -0.0834,-0.0431 -0.1724,-0.0647 -0.2668,-0.0647 h -0.5383 l -0.2347,0.0321 c -0.0428,0 -0.0861,-0.2152 -0.1264,-0.6463 v -0.9641 l -0.0323,-0.1562 c 0.0215,0 0.0323,-0.0108 0.0323,-0.0326 0,-0.1159 -0.0108,-0.2316 -0.0323,-0.3472 l 0.0323,-0.1724 c 0,-0.0431 -0.0108,-0.0862 -0.0323,-0.127 l 0.0323,-0.191 v -2.5399 l 0.0295,-0.0618 c -0.0187,0 -0.0295,-0.011 -0.0295,-0.0326 0,-0.0535 0.0108,-0.0938 0.0295,-0.1264 l -0.0295,-0.0782 0.0295,-0.0647 c -0.0187,0 -0.0295,-0.0104 -0.0295,-0.0294 v -0.065 c 0,-0.043 0.0108,-0.0833 0.0295,-0.1261 -0.0187,-0.0323 -0.0295,-0.0728 -0.0295,-0.1267 v -1.2308 l -0.0323,-0.1562 c 0.0215,0 0.0323,-0.0108 0.0323,-0.0323 l -0.0323,-0.0621 0.0323,-0.0646 c -0.0215,-0.0431 -0.0323,-0.0836 -0.0323,-0.1264 v -0.8354 l -0.0323,-0.2208 c 0.0215,0 0.0323,-0.0105 0.0323,-0.0321 -0.0216,0 -0.0323,-0.0164 -0.0323,-0.0487 v -2.2703 l -0.0298,-0.396 c 0.019,0 0.0298,-0.0108 0.0298,-0.0323 -0.0216,-0.0298 -0.0298,-0.0729 -0.0298,-0.1239 v -0.1267 c 0,-0.0646 0.019,-0.1264 0.0621,-0.191 -0.0216,0 -0.0323,-0.0111 -0.0323,-0.0298 v -0.1752 c -0.0837,0 -0.1454,-0.0402 -0.1883,-0.1264 v -0.0298 c 0,-0.0431 0.0213,-0.0646 0.0616,-0.0646 h 0.2531 c 0.0836,0 0.1859,0.0111 0.2993,0.0326 0.0428,-0.0215 0.0752,-0.0326 0.0967,-0.0326 l 0.2832,0.0326 c 0.3688,-0.0431 0.6162,-0.0649 0.7404,-0.0649 h 0.428 l 0.0618,0.0323 v -0.0323 c 1.0534,0.0649 1.5786,0.1267 1.5786,0.1913 v 0.0298 l -0.0621,0.0966 v 0.3314 c 0,0.1885 -0.1533,0.2829 -0.4577,0.2829 h -1.247 l -0.1752,0.0323 c 0,-0.0215 -0.0108,-0.0323 -0.0298,-0.0323 v 0.0323 l -0.1584,-0.0323 h -0.127 l -0.3152,0.0323 c 0,-0.0215 -0.0159,-0.0323 -0.0482,-0.0323 0,0.1157 0.0266,0.3745 0.0808,0.773 -0.0216,0 -0.0326,0.0108 -0.0326,0.0326 0.0215,0 0.0326,0.0105 0.0326,0.0321 v 1.1043 c 0,0.2098 -0.0111,0.5307 -0.0326,0.9615 0.0215,0 0.0326,0.0213 0.0326,0.0644 -0.0216,0 -0.0326,0.0193 -0.0326,0.0623 l 0.0326,0.1585 c -0.0216,0 -0.0326,0.0111 -0.0326,0.0298 l 0.0326,0.0646 c -0.0542,0.3152 -0.0808,0.6143 -0.0808,0.8994 0,0.0326 0.0162,0.0624 0.0482,0.0944 -0.032,0.0434 -0.0482,0.0893 -0.0482,0.1426 v 0.3152 l 0.0482,0.3155 c -0.032,0 -0.0482,0.0108 -0.0482,0.0323 0.0323,0.0403 0.0482,0.1103 0.0482,0.2047 0.2103,0.0215 0.3693,0.0323 0.4742,0.0323 h 1.3252 l 0.159,-0.0323 c 0,0.0215 0.0188,0.0323 0.0618,0.0323 v 0.0941 c -0.0323,0.0621 -0.0618,0.0941 -0.0944,0.0941 0,0.0839 0.0111,0.1698 0.0326,0.2534 l -0.0326,0.1727 c 0.1055,0.032 0.1565,0.0646 0.1565,0.0938 0,0.0757 -0.1454,0.1267 -0.4419,0.159 l -0.078,-0.0323 c -0.043,0.0108 -0.1992,0.0323 -0.4742,0.0649 0,-0.0218 -0.0105,-0.0326 -0.0298,-0.0326 v 0.0326 l -0.1584,-0.0326 h -0.9482 v 0.8056 c 0,0.1049 0.0162,0.2611 0.0482,0.4737 -0.032,0 -0.0482,0.0111 -0.0482,0.0295 0.0323,0 0.0482,0.0164 0.0482,0.0485 v 0.2537 l -0.0482,0.0615 h 0.0482 c 0,0.0541 -0.0159,0.0944 -0.0482,0.127 0.0323,0.4847 0.0482,0.8725 0.0482,1.1687 v 0.377 l -0.0482,0.0649 c 0.0323,0 0.0482,0.0108 0.0482,0.0292 v 0.8702 l 2.1467,0.0618 c 0.1162,-0.0215 0.2372,-0.032 0.3636,-0.032 0,0.0215 0.0111,0.032 0.0295,0.032 l -0.0295,0.1591 v 0.5816 c 0,0.0647 -0.1964,0.0973 -0.5845,0.0973 h -0.8674 l -0.0646,-0.0326 v 0.0326 l -0.3311,-0.0326 -0.1267,0.0326 c 0,-0.0219 -0.0108,-0.0326 -0.032,-0.0326 l -0.0618,0.0326 -0.0624,-0.0326 -0.0646,0.0326 -0.0618,-0.0326 z m -18.7016,0.1887 c -0.1911,0 -0.3234,-0.1108 -0.396,-0.3316 v -0.4578 l -0.0323,-0.1755 c 0.0218,0 0.0323,-0.008 0.0323,-0.0295 -0.0403,-0.3903 -0.0618,-0.8832 -0.0618,-1.4839 l -0.0485,-0.159 c 0.0323,0 0.0485,-0.0105 0.0485,-0.0298 -0.032,-0.3688 -0.0485,-0.6568 -0.0485,-0.8696 l 0.0485,-0.0618 c -0.0539,0 -0.0811,-0.0542 -0.0811,-0.1591 0,-0.0294 0.0111,-0.0677 0.0326,-0.1105 -0.0215,0 -0.0326,-0.0108 -0.0326,-0.0298 v -1.0584 l -0.0297,-0.3311 c 0.0192,0 0.0297,-0.0111 0.0297,-0.0323 -0.0187,0 -0.0297,-0.0108 -0.0297,-0.0298 v -1.0261 c 0,-0.2022 0.011,-0.4848 0.0297,-0.8538 -0.0187,-0.0187 -0.0297,-0.1103 -0.0297,-0.2665 0.0192,-0.0431 0.0297,-0.0757 0.0297,-0.0944 -0.0187,0 -0.0297,-0.0108 -0.0297,-0.0326 l 0.0297,-0.2367 c 0,-0.0538 -0.0105,-0.1372 -0.0297,-0.2531 l 0.0297,-0.237 c -0.0402,-0.6196 -0.0725,-1.6676 -0.0944,-3.1405 -0.0209,-0.0405 -0.0292,-0.0731 -0.0292,-0.0944 0.0188,0 0.0403,-0.1616 0.0618,-0.4901 -0.0215,0 -0.0326,-0.0349 -0.0326,-0.1105 0.0839,-0.2611 0.1644,-0.3932 0.2373,-0.3932 h 0.0323 c 0.1267,0.0941 0.3586,0.1426 0.6951,0.1426 h 0.0938 l 0.0624,-0.0323 c 0,0.0323 0.0215,0.0538 0.0646,0.062 0,0.0644 -0.0216,0.2586 -0.0646,0.5843 0.0538,2.8201 0.1102,4.2315 0.1749,4.2315 -0.0216,0 -0.0321,0.008 -0.0321,0.0298 0.0216,0 0.0321,0.0105 0.0321,0.0323 v 0.237 l 0.0297,0.1562 h 0.3314 l 0.159,-0.0301 c 0,0.0218 0.0105,0.0301 0.032,0.0301 0.0618,-0.0406 0.0944,-0.0834 0.0944,-0.1242 0.275,-0.7594 0.8054,-2.4103 1.5945,-4.9558 0.0216,-0.2531 0.0944,-0.4255 0.2208,-0.5227 0.0511,0 0.0995,0.011 0.1426,0.0326 0.1565,-0.0216 0.2452,-0.0326 0.2668,-0.0326 0.0649,0 0.0944,0.0431 0.0944,0.127 0.2854,0.0215 0.4254,0.0589 0.4254,0.1102 v 0.0324 l -0.2664,0.7891 c 0.0212,0 0.0323,0.0111 0.0323,0.0323 0,0.019 -0.0111,0.0298 -0.0323,0.0298 -0.2211,0.8861 -0.4635,1.6778 -0.7274,2.3837 0,0.1587 -0.2506,0.9371 -0.7568,2.3348 v 0.0324 h 0.0944 c 0.3152,0 0.695,0.3098 1.1364,0.932 0.0836,0.2424 0.1885,0.6573 0.3152,1.2472 l -0.0295,0.0618 c 0.0726,0.2535 0.1103,0.5627 0.1103,0.9321 v 0.0618 h 0.0941 c 0.0215,0.3906 0.0297,0.6332 0.0297,0.7276 l -0.0297,0.4578 c -0.1372,0.8938 -0.2798,1.4355 -0.4252,1.6237 -0.2965,0.3368 -0.7274,0.5902 -1.2957,0.7571 h -1.2793 l -0.1724,0.0323 c 0,-0.0218 -0.0107,-0.0323 -0.0323,-0.0323 v 0.0323 c -0.1885,0 -0.4634,0.0108 -0.8189,0.0326 z m 0.913,-0.9944 c 0.2021,0 0.423,0.0111 0.6653,0.0295 0.3045,-0.0295 0.5573,-0.0938 0.7569,-0.1882 0.3691,-0.1993 0.6086,-0.4635 0.7245,-0.7892 v -0.6624 l 0.0326,-0.0624 h -0.0326 c 0,-0.032 0.0108,-0.0697 0.0326,-0.11 0,-0.0541 -0.011,-0.1374 -0.0326,-0.2534 0.0216,0 0.0326,-0.0105 0.0326,-0.0323 -0.0218,0 -0.0326,-0.0161 -0.0326,-0.0456 v -0.4283 l -0.0297,-0.3314 c 0.0192,0 0.0297,-0.0108 0.0297,-0.0298 -0.0187,0 -0.0402,-0.1315 -0.0618,-0.3957 0.0216,0 0.0321,-0.0111 0.0321,-0.0323 -0.0536,-0.1239 -0.0967,-0.1885 -0.1265,-0.1885 -0.1049,-0.6843 -0.2154,-1.0718 -0.3313,-1.1662 0,-0.2639 -0.4417,-0.4688 -1.325,-0.6168 0,0.0323 -0.0215,0.0536 -0.0646,0.0618 h -0.127 l -0.0618,-0.0295 c 0,0.0295 -0.1479,0.0507 -0.4416,0.0618 v 0.2693 l -0.0323,0.0621 c 0.0215,0 0.0323,0.0107 0.0323,0.0323 v 0.6301 c 0,0.1375 0.0108,0.3019 0.0298,0.4901 l -0.0621,0.6007 c 0.0215,0 0.0323,0.0111 0.0323,0.0295 l -0.0323,0.127 c 0,0.0538 0.0107,0.0941 0.0323,0.1264 -0.0216,0.0434 -0.0323,0.0887 -0.0323,0.1429 v 0.1264 l 0.0323,0.1723 c -0.0216,0 -0.0323,0.0114 -0.0323,0.0326 l 0.0323,0.0618 c -0.0216,0.0431 -0.0323,0.0865 -0.0323,0.1265 l 0.0323,0.1754 c -0.0216,0 -0.0323,0.0105 -0.0323,0.0295 0.0215,0 0.0323,0.0108 0.0323,0.0323 v 0.159 c 0,0.0511 -0.0108,0.0995 -0.0323,0.1398 l 0.0323,0.0646 c 0.0215,0.6735 0.0298,1.1152 0.0298,1.3252 0,0.0539 0.0158,0.1375 0.0484,0.2531 z m -19.6979,0.8836 c -0.1267,-0.0646 -0.1888,-0.1105 -0.1888,-0.1426 v -0.0326 l 0.0323,-0.0618 c -0.0215,0 -0.0431,-0.0944 -0.0646,-0.2829 0.0431,-0.0969 0.0646,-0.2693 0.0646,-0.5224 0,-0.1052 -0.0105,-0.2613 -0.0323,-0.4742 0.0218,0 0.0323,-0.0105 0.0323,-0.0295 -0.0431,0 -0.0754,-0.3473 -0.0966,-1.0423 0,-0.0431 -0.0111,-0.0833 -0.0298,-0.1264 l 0.0298,-0.0624 c 0,-0.4413 0.0104,-0.8266 0.032,-1.1528 0,-0.3257 -0.0108,-0.9156 -0.032,-1.7669 0.0212,-1.6642 0.032,-2.9086 0.032,-3.7409 0,-0.1159 -0.0108,-0.299 -0.032,-0.5519 0.0212,-0.0215 0.032,-0.2483 0.032,-0.6786 0,-0.3367 0.0944,-0.7004 0.2854,-1.0885 0.2506,-0.3906 0.7141,-0.6678 1.3876,-0.8376 h 0.3954 c 0.9887,0 1.6727,0.3203 2.05,0.9643 0.2639,0.6197 0.3958,1.3709 0.3958,2.2544 l -0.0324,0.3175 c 0.065,0 0.1052,0.5581 0.1267,1.673 -0.0215,0.0403 -0.032,0.0887 -0.032,0.14 0.0213,0 0.032,0.0213 0.032,0.0647 0,0.0215 -0.0107,0.051 -0.032,0.0941 h 0.032 l -0.032,0.159 v 0.5519 c 0,0.2103 -0.011,0.4689 -0.0297,0.773 0.0187,0.0326 0.0297,0.0944 0.0297,0.1885 -0.0193,0 -0.0297,0.0108 -0.0297,0.0323 0.0187,0 0.0402,0.0839 0.0617,0.2535 l -0.032,0.0617 c 0.0213,0.0431 0.032,0.0891 0.032,0.1426 v 0.0624 l -0.032,0.3152 c 0.0213,0 0.032,0.0105 0.032,0.032 -0.0215,0.0431 -0.032,0.0834 -0.032,0.1265 v 1.1987 c 0,0.2021 -0.011,0.3799 -0.0297,0.5389 l 0.0938,2.0979 c -0.0834,0.3478 -0.1372,0.5202 -0.1588,0.5202 h -0.0941 c 0,-0.0326 -0.0161,-0.0678 -0.0484,-0.1106 l -0.0621,0.0485 -0.0621,-0.0485 c 0,0.0321 -0.0108,0.0485 -0.0323,0.0485 h -0.1588 l -0.062,-0.0485 v 0.0485 c -0.2424,-0.0323 -0.385,-0.0595 -0.4255,-0.0811 0,-0.0405 0.0241,-0.0618 0.0782,-0.0618 l -0.0782,-1.1826 c 0.0298,0 0.0456,-0.0108 0.0456,-0.0323 -0.0402,0 -0.0672,-0.269 -0.0782,-0.805 v -2.0038 l 0.0326,-0.2209 c -0.0216,0 -0.0326,-0.011 -0.0326,-0.0326 0.0218,-0.1159 0.0326,-0.1777 0.0326,-0.1888 l -0.0326,-0.5221 0.0326,-0.0621 c -0.0216,0 -0.0326,-0.0105 -0.0326,-0.0323 v -0.1267 l 0.0326,-0.0618 h -0.0326 c 0,-0.4201 -0.0431,-1.4006 -0.1264,-2.9356 0.0433,-0.2936 0.062,-0.5521 0.062,-0.7732 0.0431,-0.0621 0.0754,-0.0942 0.097,-0.0942 0,-0.8725 -0.1049,-1.4411 -0.3181,-1.705 -0.2097,-0.4955 -0.4765,-0.7407 -0.8022,-0.7407 h -0.2854 c -0.1673,0 -0.3424,0.0403 -0.5202,0.1267 -0.4524,0.2288 -0.6786,0.8995 -0.6786,2.0038 v 0.4094 l -0.0323,0.2211 c 0.0218,0 0.0323,0.0161 0.0323,0.0481 0,0.0621 -0.0105,0.2617 -0.0323,0.5979 0.0646,0.663 0.0941,1.4791 0.0941,2.446 0,0.0969 0.0111,0.1857 0.0326,0.2693 -0.0215,0.0833 -0.0326,0.1695 -0.0326,0.2528 v 0.4578 c 0,0.2937 -0.0105,0.7002 -0.0295,1.2152 0.019,0.0834 0.0295,0.1667 0.0295,0.2529 -0.0215,0 -0.0295,0.011 -0.0295,0.0298 h 0.0295 l -0.0295,0.3313 v 0.5842 c 0,0.1375 0.019,0.7382 0.0621,1.7992 v 0.3478 c 0,0.159 -0.0215,0.2801 -0.0621,0.3634 l -0.1587,-0.032 h -0.0944 l -0.159,0.032 c 0,-0.0215 -0.0105,-0.032 -0.0323,-0.032 0,0.0215 -0.008,0.032 -0.0295,0.032 h -0.0647 l -0.0617,-0.032 c 0,0.0215 -0.0165,0.032 -0.0488,0.032 z m -0.0941,-10.3992 h 0.0615 v -0.0966 c 0,-0.1052 0.0326,-0.2994 0.0969,-0.582 h -0.0643 c 0,0.0944 -0.0221,0.1775 -0.0621,0.2503 h 0.0295 c -0.0184,0.2319 -0.04,0.3748 -0.0615,0.4283 z m 0.1264,-0.7432 h 0.0618 v -0.0944 l 0.0488,-0.1724 c -0.0542,0 -0.0893,0.0891 -0.1106,0.2668 z m -14.5865,11.1883 c -0.0723,-0.019 -0.1154,-0.0295 -0.1262,-0.0295 -1.1151,-0.0218 -1.8235,-0.0325 -2.1305,-0.0325 -1.0505,0 -1.5783,-0.0514 -1.5783,-0.1591 v -0.0618 h 0.0646 v -0.5198 c -0.0836,0 -0.1267,-0.0216 -0.1267,-0.0647 v -0.0326 c 0,-0.0833 0.6089,-0.1451 1.8315,-0.1882 -0.0431,-0.8215 -0.0647,-1.5514 -0.0647,-2.1926 l 0.0326,-0.1584 c -0.0218,0 -0.0326,-0.0326 -0.0326,-0.0944 v -0.4422 l 0.0326,-0.078 h -0.0326 l 0.0326,-0.1587 c 0,-0.5142 0.0105,-0.8998 0.0321,-1.1529 l -0.0647,-2.5075 c 0.0216,0 0.0326,-0.0105 0.0326,-0.0323 -0.0218,0 -0.0326,-0.0108 -0.0326,-0.0326 0,-0.0508 0.0108,-0.0995 0.0326,-0.1426 -0.0218,-0.0295 -0.0326,-0.0723 -0.0326,-0.1236 v -1.2175 c 0,-0.2721 -0.0104,-0.5709 -0.032,-0.8994 0.0216,-0.0513 0.0428,-0.3314 0.0646,-0.8354 0,-0.0941 -0.0326,-0.2044 -0.0944,-0.3311 0,-0.0431 0.0403,-0.0646 0.1265,-0.0646 v -0.614 l -0.0321,-0.0646 c 0.1265,-0.0839 0.2047,-0.1562 0.237,-0.2211 0.2208,0.0323 0.358,0.0538 0.4091,0.0649 v -0.0326 c 0.3047,0 0.458,0.0728 0.458,0.2208 -0.0218,0.0326 -0.0433,0.2265 -0.062,0.5845 0.0187,0.1052 0.0297,0.2481 0.0297,0.4258 l -0.0297,0.0646 c 0.0187,0 0.0297,0.0105 0.0297,0.0298 v 0.0646 l -0.0297,0.0618 h 0.0297 c 0,0.0431 -0.011,0.0833 -0.0297,0.1264 l 0.0297,0.1591 -0.0297,0.0617 0.0297,0.065 c -0.0215,0.0402 -0.0297,0.0725 -0.0297,0.0941 0,0.0513 0.008,0.0995 0.0297,0.1403 l -0.0297,0.0643 c 0,0.1778 -0.0159,0.5199 -0.0482,1.0262 0.0323,0.9669 0.0482,1.5675 0.0482,1.7994 l -0.0482,0.1264 c 0.0323,0 0.0482,0.008 0.0482,0.0298 0,0.0862 0.0402,1.9525 0.1241,5.6021 -0.0193,0.0862 -0.0297,0.3016 -0.0297,0.6491 v 0.0298 h 0.2826 c 0.4742,0 0.8487,-0.019 1.1208,-0.0621 0,0.0216 0.0105,0.0323 0.032,0.0323 l 0.1429,-0.0323 c 0.1264,0 0.1885,0.2693 0.1885,0.8056 -0.0216,0.0403 -0.0323,0.0723 -0.0323,0.0939 0.1051,0 0.159,0.0218 0.159,0.062 0,0.0431 -0.0215,0.0649 -0.0646,0.0649 h -0.5525 c -0.0938,0 -0.199,0.0105 -0.3152,0.0295 z m -17.2982,0.1588 c -0.0941,-0.0431 -0.1425,-0.0939 -0.1425,-0.1588 h -0.5843 c -0.1051,0 -0.1941,-0.21 -0.267,-0.6301 v -0.3637 c 0,-0.0513 -0.0105,-0.1001 -0.032,-0.14 0.0215,-0.0434 0.032,-0.0754 0.032,-0.097 0,-0.2318 0.0326,-0.7923 0.0944,-1.6889 l 0.0323,-0.1561 c -0.0215,0 -0.0323,-0.0108 -0.0323,-0.0326 l 0.1267,-3.3452 0.0459,-0.1587 c -0.0297,0 -0.0459,-0.0137 -0.0459,-0.0457 l 0.0459,-0.0646 -0.0459,-0.0624 0.0459,-0.0615 -0.0459,-0.0646 0.0459,-0.0621 -0.0459,-0.0808 0.0459,-0.0618 -0.0459,-0.0649 c 0,-0.0187 0.0162,-0.051 0.0459,-0.0941 -0.0297,0 -0.0459,-0.0111 -0.0459,-0.0298 v -0.0484 l 0.0459,-0.0621 h -0.0459 c 0,-0.0216 0.0162,-0.0536 0.0459,-0.0967 l -0.0459,-0.0621 0.0459,-0.062 -0.0459,-0.0805 0.0459,-0.0624 -0.0459,-0.0644 0.0459,-0.062 -0.0459,-0.0647 0.0459,-0.0779 c -0.0297,-0.0326 -0.0459,-0.0729 -0.0459,-0.1267 v -0.5981 l -0.0323,-0.1588 c 0.0215,0 0.0323,-0.0107 0.0323,-0.032 l -0.0323,-0.0621 c 0,-0.0323 0.0105,-0.0674 0.0323,-0.1105 h -0.0646 c 0,0.0833 -0.0998,0.3824 -0.2991,0.8994 -0.6089,1.9259 -1.0153,3.1623 -1.2146,3.7091 -0.2208,0.8215 -0.4014,1.387 -0.536,1.7045 -0.4417,1.2311 -0.7379,2.1147 -0.8836,2.6507 l 0.0298,0.0618 -0.0944,0.1754 c -0.0403,0 -0.1318,-0.0218 -0.2665,-0.0649 0,0.0219 -0.011,0.0323 -0.0326,0.0323 h -0.0646 l -0.1724,-0.0323 c 0,0.0219 -0.0105,0.0323 -0.032,0.0323 l -0.3637,-0.0782 v 0.0459 c -0.0513,0 -0.1292,-0.0351 -0.2347,-0.1105 l 0.0301,-0.2208 v -0.1724 c 0,-0.1777 -0.0108,-0.3903 -0.0301,-0.6301 l 0.0301,-0.0649 c -0.0108,-0.0513 -0.0301,-0.2155 -0.0621,-0.4876 0.0215,-0.0862 0.032,-0.1749 0.032,-0.2693 v -0.396 l -0.032,-0.2341 c 0.0215,0 0.032,-0.0216 0.032,-0.0649 l -0.032,-0.0616 0.032,-0.0646 c -0.0215,0 -0.032,-0.0164 -0.032,-0.0462 v -0.3175 c 0,-0.21 -0.0216,-0.4983 -0.0647,-0.8674 l 0.0321,-0.2987 c -0.021,-0.084 -0.0321,-0.1594 -0.0321,-0.2209 l 0.0321,-0.0782 c -0.021,0 -0.0321,-0.0108 -0.0321,-0.0326 v -0.1885 l 0.0321,-0.0805 c -0.021,0 -0.0321,-0.0111 -0.0321,-0.0326 v -0.3606 l 0.0321,-0.0649 c -0.021,0 -0.0321,-0.0108 -0.0321,-0.0295 v -0.0326 l 0.0321,-0.0646 h -0.0321 c 0.0216,-0.8402 0.0431,-1.3518 0.0647,-1.5299 -0.0216,-0.043 -0.0326,-0.0725 -0.0326,-0.0938 0,-0.0218 0.011,-0.0541 0.0326,-0.0944 -0.0216,-0.1159 -0.0326,-0.2154 -0.0326,-0.3016 l 0.0326,-0.0621 h -0.0326 c 0,-0.0212 0.011,-0.0538 0.0326,-0.0941 -0.0216,-0.0431 -0.0326,-0.089 -0.0326,-0.1428 V 426.71 l 0.0326,-0.1724 c -0.0216,0 -0.0326,-0.0107 -0.0326,-0.0323 l 0.0326,-0.1882 v -1.5007 l 0.032,-0.1882 c -0.0215,-0.0431 -0.032,-0.0998 -0.032,-0.1754 v -1.12 l -0.0326,-0.1565 c 0.0215,0 0.0326,-0.0377 0.0326,-0.1103 v -0.396 l -0.0326,-0.062 c 0.0646,-0.0323 0.2534,-0.0754 0.5686,-0.1265 l 0.159,0.0321 0.0618,-0.0321 c 0,0.0216 0.0675,0.0511 0.2044,0.0942 l -0.0292,0.2372 v 1.484 c 0,0.1454 0.0187,0.8509 0.0618,2.1143 v 0.0618 l 0.0326,0.1749 c -0.0215,0 -0.0326,0.0111 -0.0326,0.0298 0,0.1805 0.0111,0.28 0.0326,0.3016 -0.0215,0.1457 -0.0326,0.267 -0.0326,0.3637 v 2.0038 l -0.0326,0.0782 h 0.0326 l -0.0326,0.3932 v 1.4547 l 0.0326,0.3932 h 0.0326 c 0.1344,-0.4955 0.3577,-1.1877 0.6625,-2.0821 0.4818,-1.3388 0.7245,-2.0418 0.7245,-2.1169 0.7673,-2.0823 1.2416,-3.4611 1.4221,-4.1343 0.116,-0.1673 0.2155,-0.3881 0.2988,-0.6628 v -0.0943 l -0.0618,-0.0942 c 0.0295,-0.0751 0.0618,-0.1105 0.0941,-0.1105 h 0.0944 c 0.5573,0.0621 0.8348,0.1321 0.8348,0.2047 0,0.0218 -0.0108,0.0323 -0.0295,0.0323 0.1049,0.1777 0.1562,0.4419 0.1562,0.7891 v 0.1106 l 0.0323,0.1562 c -0.0218,0 -0.0323,0.0107 -0.0323,0.0323 0.0431,0 0.0754,0.3742 0.0944,1.1202 -0.019,0 -0.0297,0.0162 -0.0297,0.0488 l 0.0297,0.0618 c -0.0405,0.959 -0.0728,1.4734 -0.0944,1.546 l 0.0323,0.2047 c 0,0.5901 -0.0218,1.3952 -0.062,2.4159 -0.0216,0.0431 -0.0324,0.0729 -0.0324,0.0941 0.0216,0 0.0324,0.0114 0.0324,0.0326 0,0.0219 -0.0108,0.0514 -0.0324,0.0944 0,0.0511 0.0108,0.0998 0.0324,0.1429 l -0.1265,3.835 c 0.0187,0.0405 0.0295,0.0728 0.0295,0.0944 -0.0187,0 -0.0295,0.011 -0.0295,0.0295 l 0.0295,0.0646 -0.0295,0.0621 0.0295,0.0808 c -0.0187,0.0297 -0.0295,0.0728 -0.0295,0.1241 v 0.1749 l 0.0295,0.1559 c -0.0187,0 -0.0295,0.0111 -0.0295,0.0326 0.0187,0 0.0295,0.0105 0.0295,0.0323 v 0.9321 c 0,0.0295 -0.0187,0.051 -0.0621,0.0618 z m -0.805,-0.3637 h 0.1103 v -0.0295 c -0.0321,0 -0.0669,-0.0105 -0.1103,-0.0323 z m -0.0621,-0.3311 c 0.0406,0 0.0621,-0.0215 0.0621,-0.0621 v -0.9938 h -0.0323 l -0.0298,0.3311 v 0.299 l -0.0323,0.0618 c 0.0215,0 0.0323,0.0111 0.0323,0.0326 z m 0.0298,-1.1503 h 0.0323 v -0.2367 h -0.0323 z m -2.02,-1.9256 h 0.0805 v -0.1267 h -0.0323 c 0,0.0216 -0.0162,0.0513 -0.0482,0.0941 z m 0.0805,-0.2211 c 0.0406,0 0.0621,-0.0269 0.0621,-0.0805 v -0.0297 c -0.0405,0 -0.0621,0.0187 -0.0621,0.0617 z m 0.0621,-0.2367 h 0.0646 c 0,-0.1159 0.0406,-0.2854 0.1239,-0.5065 v -0.0295 h -0.0298 c 0,0.0295 -0.0535,0.1993 -0.1587,0.5034 z m 0.2208,-0.6627 h 0.0485 v -0.0646 h -0.0485 z m -18.1519,4.6086 c -0.0836,-0.0431 -0.1724,-0.0647 -0.2668,-0.0647 h -0.5385 l -0.2348,0.0321 c -0.043,0 -0.0861,-0.2152 -0.1264,-0.6463 v -0.9641 l -0.032,-0.1562 c 0.0213,0 0.032,-0.0108 0.032,-0.0326 0,-0.1159 -0.0107,-0.2316 -0.032,-0.3472 l 0.032,-0.1724 c 0,-0.0431 -0.0107,-0.0862 -0.032,-0.127 l 0.032,-0.191 v -2.5399 l 0.0298,-0.0618 c -0.019,0 -0.0298,-0.011 -0.0298,-0.0326 0,-0.0535 0.0108,-0.0938 0.0298,-0.1264 l -0.0298,-0.0782 0.0298,-0.0647 c -0.019,0 -0.0298,-0.0104 -0.0298,-0.0294 v -0.065 c 0,-0.043 0.0108,-0.0833 0.0298,-0.1261 -0.019,-0.0323 -0.0298,-0.0728 -0.0298,-0.1267 v -1.2308 l -0.032,-0.1562 c 0.0213,0 0.032,-0.0108 0.032,-0.0323 l -0.032,-0.0621 0.032,-0.0646 c -0.0212,-0.0431 -0.032,-0.0836 -0.032,-0.1264 v -0.8354 l -0.0326,-0.2208 c 0.0215,0 0.0326,-0.0105 0.0326,-0.0321 -0.0216,0 -0.0326,-0.0164 -0.0326,-0.0487 v -2.2703 l -0.0295,-0.396 c 0.019,0 0.0295,-0.0108 0.0295,-0.0323 -0.0215,-0.0298 -0.0295,-0.0729 -0.0295,-0.1239 v -0.1267 c 0,-0.0646 0.019,-0.1264 0.0621,-0.191 -0.0216,0 -0.0326,-0.0111 -0.0326,-0.0298 v -0.1752 c -0.0833,0 -0.1454,-0.0402 -0.1885,-0.1264 v -0.0298 c 0,-0.0431 0.0215,-0.0646 0.0624,-0.0646 h 0.2525 c 0.0839,0 0.186,0.0111 0.2994,0.0326 0.043,-0.0215 0.0754,-0.0326 0.0969,-0.0326 l 0.2826,0.0326 c 0.3691,-0.0431 0.6168,-0.0649 0.741,-0.0649 h 0.428 l 0.0618,0.0323 v -0.0323 c 1.0534,0.0649 1.5786,0.1267 1.5786,0.1913 v 0.0298 l -0.062,0.0966 v 0.3314 c 0,0.1885 -0.1534,0.2829 -0.4581,0.2829 h -1.2467 l -0.1752,0.0323 c 0,-0.0215 -0.0108,-0.0323 -0.0297,-0.0323 v 0.0323 l -0.1591,-0.0323 h -0.1264 l -0.3152,0.0323 c 0,-0.0215 -0.0159,-0.0323 -0.0485,-0.0323 0,0.1157 0.0269,0.3745 0.0808,0.773 -0.0213,0 -0.0323,0.0108 -0.0323,0.0326 0.0215,0 0.0323,0.0105 0.0323,0.0321 v 1.1043 c 0,0.2098 -0.0108,0.5307 -0.0323,0.9615 0.0215,0 0.0323,0.0213 0.0323,0.0644 -0.0213,0 -0.0323,0.0193 -0.0323,0.0623 l 0.0323,0.1585 c -0.0213,0 -0.0323,0.0111 -0.0323,0.0298 l 0.0323,0.0646 c -0.0539,0.3152 -0.0808,0.6143 -0.0808,0.8994 0,0.0326 0.0162,0.0624 0.0485,0.0944 -0.0323,0.0434 -0.0485,0.0893 -0.0485,0.1426 v 0.3152 l 0.0485,0.3155 c -0.0323,0 -0.0485,0.0108 -0.0485,0.0323 0.0326,0.0403 0.0485,0.1103 0.0485,0.2047 0.2103,0.0215 0.3693,0.0323 0.4742,0.0323 h 1.3252 l 0.1588,-0.0323 c 0,0.0215 0.019,0.0323 0.062,0.0323 v 0.0941 c -0.0326,0.0621 -0.062,0.0941 -0.0943,0.0941 0,0.0839 0.011,0.1698 0.0323,0.2534 l -0.0323,0.1727 c 0.1051,0.032 0.1561,0.0646 0.1561,0.0938 0,0.0757 -0.1451,0.1267 -0.4416,0.159 l -0.078,-0.0323 c -0.043,0.0108 -0.1992,0.0323 -0.4742,0.0649 0,-0.0218 -0.0108,-0.0326 -0.0298,-0.0326 v 0.0326 l -0.1587,-0.0326 h -0.9482 v 0.8056 c 0,0.1049 0.0162,0.2611 0.0485,0.4737 -0.0323,0 -0.0485,0.0111 -0.0485,0.0295 0.0326,0 0.0485,0.0164 0.0485,0.0485 v 0.2537 l -0.0485,0.0615 h 0.0485 c 0,0.0541 -0.0159,0.0944 -0.0485,0.127 0.0326,0.4847 0.0485,0.8725 0.0485,1.1687 v 0.377 l -0.0485,0.0649 c 0.0326,0 0.0485,0.0108 0.0485,0.0292 v 0.8702 l 2.1467,0.0618 c 0.1159,-0.0215 0.2372,-0.032 0.3637,-0.032 0,0.0215 0.0107,0.032 0.0294,0.032 l -0.0294,0.1591 v 0.5816 c 0,0.0647 -0.1965,0.0973 -0.5845,0.0973 h -0.8675 l -0.0646,-0.0326 v 0.0326 l -0.3311,-0.0326 -0.1267,0.0326 c 0,-0.0219 -0.0105,-0.0326 -0.032,-0.0326 l -0.0624,0.0326 -0.0618,-0.0326 -0.0646,0.0326 -0.0618,-0.0326 z m -14.9797,-1.2178 h 0.0649 c 0,-0.0941 -0.0538,-0.4524 -0.159,-1.0718 l -0.0618,0.0485 0.1885,0.9615 z m -0.8668,-5.8527 h 0.0618 v -0.0805 h -0.0618 z m -0.442,-2.6206 c 0,0.0431 0.0216,0.062 0.0621,0.062 v -0.0943 h -0.0621 z m -0.4093,-2.3191 0.0162,0.0621 c 0.1051,0.0726 0.1564,0.1831 0.1564,0.3314 0.3473,1.3357 0.5196,2.2031 0.5196,2.6045 0.296,1.5568 0.5443,3.1671 0.7433,4.8294 0.3152,1.5675 0.5414,2.9301 0.6789,4.0855 0,0.0111 -0.0431,0.0647 -0.1267,0.1591 -0.2101,-0.0618 -0.3745,-0.0944 -0.4901,-0.0944 l -0.3153,0.0326 c -0.1048,-0.116 -0.1723,-0.2424 -0.2046,-0.3799 -0.2316,-1.7373 -0.3909,-2.7553 -0.4743,-3.0625 -0.2423,-1.7561 -0.4036,-2.8605 -0.4872,-3.3129 -0.3286,-2.3783 -0.5548,-3.8409 -0.6789,-4.3872 v -0.0944 h -0.0647 l -0.1561,1.01 h 0.0297 c -0.4929,2.1869 -0.9884,5.4162 -1.4842,9.688 -0.0187,0.4742 -0.1346,0.7112 -0.3444,0.7112 -0.0431,-0.0326 -0.0862,-0.0485 -0.127,-0.0485 l -0.3957,0.0485 -0.0323,-0.078 v -0.0649 l 0.0323,-0.062 c -0.0323,0 -0.051,-0.0216 -0.0621,-0.0647 v -0.0292 c 0,-0.3367 0.0215,-0.5635 0.0621,-0.6792 h -0.0323 c 0.1267,-1.2846 0.2128,-1.9686 0.2531,-2.0525 l -0.0298,-0.0615 c 0.326,-2.4619 0.4876,-3.8461 0.4876,-4.1508 l 0.5845,-3.6791 c 0.0944,-0.862 0.1777,-1.2926 0.2534,-1.2926 l -0.0326,-0.0646 v -0.0621 c 0,-0.0539 0.3314,-0.1052 0.9938,-0.159 0.3476,0 0.6571,0.0757 0.9321,0.2211 0,0.0536 -0.07,0.0862 -0.2047,0.0966 z m -19.402,12.1499 c -0.3152,-0.0402 -0.5709,-0.0618 -0.7727,-0.0618 l -0.0785,-0.032 v 0.032 l -0.1585,-0.032 h -0.2829 c -0.0728,-0.0326 -0.1103,-0.0621 -0.1103,-0.0944 v -0.7572 l -0.0326,-0.2208 c 0.0216,0 0.0326,-0.0105 0.0326,-0.0323 -0.0215,-0.1156 -0.0326,-0.2154 -0.0326,-0.2988 v -0.4283 l 0.0326,-0.3149 c -0.0215,0 -0.0326,-0.0215 -0.0326,-0.0624 l 0.0326,-0.0646 c -0.0431,0 -0.0728,-1.7076 -0.0944,-5.1282 l 0.0321,-0.0617 h -0.0321 c 0,-0.0754 0.0105,-0.1265 0.0321,-0.1591 -0.0216,-0.1882 -0.0321,-0.3421 -0.0321,-0.4578 v -0.5845 l -0.0326,-0.2369 c 0.0216,0 0.0326,-0.008 0.0326,-0.0298 l -0.0326,-0.0646 0.0326,-0.2367 c -0.0215,-0.345 -0.043,-0.5307 -0.0646,-0.5522 0.0216,-0.0298 0.032,-0.0729 0.032,-0.127 v -0.614 l -0.032,-0.237 c 0.0216,0 0.032,-0.0215 0.032,-0.0621 0,-0.0861 -0.0104,-0.2018 -0.032,-0.3472 0.0216,-0.307 0.032,-0.5173 0.032,-0.633 l -0.032,-0.2826 c 0,-0.2208 0.1857,-0.3314 0.5522,-0.3314 0.3688,0.0216 0.6542,0.0321 0.8535,0.0321 0.0729,0 0.1264,0.008 0.1562,0.0297 0.0431,-0.0218 0.0865,-0.0297 0.127,-0.0297 h 0.6007 c 0.1882,0 0.2826,0.008 0.2826,0.0297 0.4629,0 0.9102,0.2855 1.3439,0.8538 0.3662,0.684 0.5522,1.266 0.5522,1.7507 v 0.9777 l 0.1238,1.6106 -0.0294,0.1888 v 0.4898 c 0,1.0936 -0.0329,1.7269 -0.0944,1.8939 h 0.0294 c -0.0402,0.2097 -0.0618,0.5249 -0.0618,0.9482 v 0.8835 l 0.0324,0.1559 c -0.0216,0 -0.0324,0.0321 -0.0324,0.097 v 0.3931 c -0.0725,0.5358 -0.1641,0.851 -0.2695,0.9485 -0.3042,0.8399 -1.1418,1.26 -2.5073,1.26 0,-0.0187 -0.0107,-0.0298 -0.0326,-0.0298 z m -0.455,-1.0097 c 0.0187,0 0.0511,0.0105 0.0942,0.032 0.4419,0 0.6624,-0.0105 0.6624,-0.032 0.7679,0 1.1988,-0.1052 1.2929,-0.3152 0.1995,0 0.3424,-0.4147 0.4258,-1.2473 v -4.2287 l -0.0298,-0.1749 c 0.0215,0 0.0298,-0.008 0.0298,-0.0295 -0.0188,-0.0326 -0.0298,-0.0756 -0.0298,-0.1264 v -0.364 l -0.032,-0.1561 c 0.0215,0 0.032,-0.0108 0.032,-0.0321 -0.0216,0 -0.032,-0.011 -0.032,-0.0326 v -0.2046 l 0.032,-0.1888 c -0.0216,-0.0428 -0.032,-0.0967 -0.032,-0.1585 v -0.2695 l 0.032,-0.0618 h -0.032 c 0,-0.1265 0.0104,-0.2481 0.032,-0.3637 0,-1.1364 -0.1211,-1.8613 -0.3634,-2.1762 -0.4742,-0.3257 -1.0154,-0.4904 -1.6271,-0.4904 -0.1882,0.0213 -0.3501,0.0323 -0.4873,0.0323 h -0.0326 v 0.3314 c 0,0.4635 0.0111,0.8297 0.0326,1.1041 0,0.0513 -0.0107,0.2157 -0.0326,0.4904 l 0.0649,2.9653 c -0.0218,0.2103 -0.0323,0.4366 -0.0323,0.6786 l -0.0326,0.0624 h 0.0326 c 0,1.0528 -0.0107,2.0735 -0.0326,3.062 0.0431,1.1046 0.0649,1.7373 0.0649,1.8938 z m -16.7326,-0.0785 h 0.0295 c 0.1995,-2.3026 0.4362,-4.576 0.7112,-6.8165 h -0.536 l -0.1752,0.032 c 0,-0.0215 -0.0108,-0.032 -0.0295,-0.032 0,0.0216 -0.011,0.032 -0.0326,0.032 h -0.1264 c -0.3986,0.0621 -0.6355,0.0944 -0.7112,0.0944 h -0.1265 l 0.1911,1.6078 c -0.0215,0 -0.032,0.0108 -0.032,0.0326 0.5145,2.9356 0.7945,4.6191 0.8376,5.0497 z m -0.932,-0.3149 h 0.032 v -0.0644 h -0.032 z"
         style="fill:#ffaa00;fill-opacity:1;fill-rule:evenodd;stroke:none"
         id="path99" />
      <g
         id="g101">
        <path
           d="m 117.1431,473.8241 -11.8836,-27.7382 h -3.2585 l 15.1421,35.3435 15.1427,-35.3435 h -3.2584 z m -2.508,-22.2991 c 0.2162,-0.3098 0.4889,-0.6043 0.818,-0.8827 0.3291,-0.2786 0.6619,-0.519 0.9984,-0.7208 0.3362,-0.2016 0.7208,-0.4011 1.1531,-0.5981 l -0.007,0.007 0.0289,-0.007 c -0.322,0.6148 -0.4828,1.1531 -0.4828,1.6143 0,0.2449 0.059,0.4771 0.1766,0.6953 0.1174,0.2186 0.2713,0.415 0.4612,0.5874 0.1899,0.1732 0.4003,0.3461 0.6307,0.519 0.2305,0.1729 0.461,0.3592 0.692,0.5587 0.2304,0.1993 0.4408,0.4108 0.6304,0.6341 0.1899,0.2237 0.3436,0.4938 0.4615,0.8107 0.1176,0.3175 0.1763,0.6633 0.1763,1.0381 0,0.4708 -0.0661,0.913 -0.1981,1.3263 -0.1321,0.4133 -0.3062,0.7747 -0.5222,1.0845 -0.2163,0.3102 -0.4887,0.6044 -0.8184,0.883 -0.3291,0.2787 -0.6616,0.5188 -0.998,0.7206 -0.3365,0.2018 -0.7206,0.4011 -1.1532,0.5981 l 0.007,-0.007 -0.0215,0.007 c 0.3169,-0.6245 0.4756,-1.1625 0.4756,-1.6143 0,-0.2452 -0.0586,-0.4768 -0.1766,-0.6956 -0.1179,-0.2186 -0.2715,-0.4142 -0.4614,-0.5871 -0.1897,-0.1732 -0.4,-0.3461 -0.6305,-0.519 -0.2307,-0.1729 -0.4615,-0.3592 -0.6919,-0.5587 -0.2307,-0.1996 -0.4408,-0.4108 -0.6307,-0.6341 -0.1899,-0.2234 -0.3436,-0.4938 -0.4612,-0.811 -0.1179,-0.3169 -0.1766,-0.6631 -0.1766,-1.0378 0,-0.4708 0.066,-0.913 0.1981,-1.326 0.1321,-0.4133 0.3065,-0.775 0.5225,-1.0849"
           style="fill:#ffaa00;fill-opacity:1;fill-rule:evenodd;stroke:none"
           id="path103" />
        <path
           d="m 210.3228,455.741 -9.4641,22.0904 h -2.5948 l 12.0589,-28.1472 12.0597,28.1472 h -2.5951 z"
           style="fill:#ffaa00;fill-opacity:1;fill-rule:evenodd;stroke:none"
           id="path105" />
        <path
           d="m 69.5126,470.8502 v -21.1663 h -2.624 v 28.1475 l 18.3673,-20.8471 v 20.8471 H 87.88 v -28.1475 z"
           style="fill:#ffaa00;fill-opacity:1;fill-rule:evenodd;stroke:none"
           id="path107" />
        <path
           d="m 239.1276,465.4273 h 11.7453 v -2.3854 h -11.7453 v -10.9726 h 15.0086 v -2.3854 h -15.0086 -2.624 v 2.3854 10.9726 2.3854 10.0187 2.3851 h 2.624 15.0086 v -2.3851 h -15.0086 z"
           style="fill:#ffaa00;fill-opacity:1;fill-rule:evenodd;stroke:none"
           id="path109" />
        <path
           d="m 146.4069,477.8311 h 9.1834 2.624 9.1837 v -2.3851 h -9.1837 v -25.7621 h -2.624 v 25.7621 h -9.1834 z"
           style="fill:#ffaa00;fill-opacity:1;fill-rule:evenodd;stroke:none"
           id="path111" />
        <path
           d="m 181.5191,449.6839 h 2.6237 v 28.1472 h -2.6237 z"
           style="fill:#ffaa00;fill-opacity:1;fill-rule:evenodd;stroke:none"
           id="path113" />
      </g>
    </g>
  </g>
</svg>
